<?xml version="1.0" encoding="UTF-8" standalone="no"?>
<svg
   xmlns:dc="http://purl.org/dc/elements/1.1/"
   xmlns:cc="http://creativecommons.org/ns#"
   xmlns:rdf="http://www.w3.org/1999/02/22-rdf-syntax-ns#"
   xmlns:svg="http://www.w3.org/2000/svg"
   xmlns="http://www.w3.org/2000/svg"
   xmlns:sodipodi="http://sodipodi.sourceforge.net/DTD/sodipodi-0.dtd"
   xmlns:inkscape="http://www.inkscape.org/namespaces/inkscape"
   version="1.1"
   viewBox="0 0 764.55262 354"
   stroke-miterlimit="10"
   id="svg2"
   inkscape:version="0.48.3.1 r9886"
   width="100%"
   height="100%"
   sodipodi:docname="podd-ontologies-figure2.svg"
   style="fill:none;stroke:none"
   inkscape:export-filename="/home/peter/gitrepos/podd-publications/s4biodiv2013/podd-ontologies-figure2.png"
   inkscape:export-xdpi="1200"
   inkscape:export-ydpi="1200">
  <metadata
     id="metadata147">
    <rdf:RDF>
      <cc:Work
         rdf:about="">
        <dc:format>image/svg+xml</dc:format>
        <dc:type
           rdf:resource="http://purl.org/dc/dcmitype/StillImage" />
        <dc:title></dc:title>
      </cc:Work>
    </rdf:RDF>
  </metadata>
  <defs
     id="defs145" />
  <sodipodi:namedview
     pagecolor="#ffffff"
     bordercolor="#666666"
     borderopacity="1"
     objecttolerance="10"
     gridtolerance="10"
     guidetolerance="10"
     inkscape:pageopacity="0"
     inkscape:pageshadow="2"
     inkscape:window-width="1855"
     inkscape:window-height="1055"
     id="namedview143"
     showgrid="false"
     fit-margin-top="0"
     fit-margin-left="0"
     fit-margin-right="0"
     fit-margin-bottom="0"
     inkscape:zoom="1.140625"
     inkscape:cx="363.38142"
     inkscape:cy="106.93597"
     inkscape:window-x="65"
     inkscape:window-y="24"
     inkscape:window-maximized="1"
     inkscape:current-layer="g7" />
  <clipPath
     id="p.0">
    <path
       d="m 0,0 1024,0 0,768 L 0,768 0,0 z"
       clip-rule="nonzero"
       id="path5"
       inkscape:connector-curvature="0" />
  </clipPath>
  <g
     clip-path="url(#p.0)"
     id="g7"
     transform="translate(-198.49999,-71.5)">
    <path
       d="m 0,0 1024,0 0,768 -1024,0 z"
       id="path9"
       inkscape:connector-curvature="0"
       style="fill:#000000;fill-opacity:0;fill-rule:nonzero" />
    <path
       d="m 504.00395,158.6668 0,0 c 0,-3.68196 2.98483,-6.66679 6.66681,-6.66679 l 194.16245,0 c 1.76813,0 3.46387,0.70239 4.71417,1.95266 1.25025,1.25026 1.95264,2.94599 1.95264,4.71413 l 0,26.66641 c 0,3.68196 -2.9848,6.6668 -6.66681,6.6668 l -194.16245,0 0,0 c -3.68198,0 -6.66681,-2.98484 -6.66681,-6.6668 z"
       id="path11"
       inkscape:connector-curvature="0"
       style="fill:#efefef;fill-rule:nonzero" />
    <path
       d="m 504.00395,158.6668 0,0 c 0,-3.68196 2.98483,-6.66679 6.66681,-6.66679 l 194.16245,0 c 1.76813,0 3.46387,0.70239 4.71417,1.95266 1.25025,1.25026 1.95264,2.94599 1.95264,4.71413 l 0,26.66641 c 0,3.68196 -2.9848,6.6668 -6.66681,6.6668 l -194.16245,0 0,0 c -3.68198,0 -6.66681,-2.98484 -6.66681,-6.6668 z"
       id="path13"
       inkscape:connector-curvature="0"
       style="stroke:#00ff00;stroke-width:1;stroke-linecap:butt;stroke-linejoin:round" />
    <path
       d="m 504.00394,224.00015 0,0 c 0,-4.41837 3.58179,-8.00015 8.00017,-8.00015 l 191.49574,0 c 2.12177,0 4.15662,0.84286 5.65698,2.34318 1.5003,1.50034 2.34321,3.5352 2.34321,5.65697 l 0,31.99969 c 0,4.41837 -3.58186,8.00016 -8.00019,8.00016 l -191.49574,0 c -4.41838,0 -8.00017,-3.58179 -8.00017,-8.00016 z"
       id="path17"
       inkscape:connector-curvature="0"
       style="fill:#efefef;fill-rule:nonzero" />
    <path
       d="m 504.00394,224.00015 0,0 c 0,-4.41837 3.58179,-8.00015 8.00017,-8.00015 l 191.49574,0 c 2.12177,0 4.15662,0.84286 5.65698,2.34318 1.5003,1.50034 2.34321,3.5352 2.34321,5.65697 l 0,31.99969 c 0,4.41837 -3.58186,8.00016 -8.00019,8.00016 l -191.49574,0 c -4.41838,0 -8.00017,-3.58179 -8.00017,-8.00016 z"
       id="path19"
       inkscape:connector-curvature="0"
       style="stroke:#00ff00;stroke-width:2;stroke-linecap:butt;stroke-linejoin:round" />
    <path
       d="m 608.25195,152 51.5,-32"
       id="path23"
       inkscape:connector-curvature="0"
       style="fill:#000000;fill-opacity:0;fill-rule:nonzero" />
    <path
       d="m 608.25195,152 41.30737,-25.66672"
       id="path25"
       inkscape:connector-curvature="0"
       style="stroke:#000000;stroke-width:2;stroke-linecap:butt;stroke-linejoin:round" />
    <path
       d="m 651.30286,129.13919 5.9657,-7.59608 -9.4527,1.98426 z"
       id="path27"
       inkscape:connector-curvature="0"
       style="fill:#000000;fill-rule:evenodd;stroke:#000000;stroke-width:2;stroke-linecap:butt" />
    <path
       d="m 607.50003,216 0.50391,-24"
       id="path29"
       inkscape:connector-curvature="0"
       style="fill:#000000;fill-opacity:0;fill-rule:nonzero" />
    <path
       d="m 607.62598,216 0.25201,-12.00264"
       id="path31"
       inkscape:connector-curvature="0"
       style="stroke:#000000;stroke-width:2;stroke-linecap:butt;stroke-linejoin:round" />
    <path
       d="m 611.05472,204.06671 -3.11218,-9.14356 -3.49329,9.00486 z"
       id="path33"
       inkscape:connector-curvature="0"
       style="fill:#000000;fill-rule:evenodd;stroke:#000000;stroke-width:2;stroke-linecap:butt" />
    <path
       d="m 504.00394,304.00015 0,0 c 0,-4.41837 3.58179,-8.00015 8.00017,-8.00015 l 191.49574,0 c 2.12177,0 4.15662,0.84286 5.65698,2.3432 1.5003,1.5003 2.34321,3.53518 2.34321,5.65695 l 0,31.99969 c 0,4.41837 -3.58186,8.00016 -8.00019,8.00016 l -191.49574,0 c -4.41838,0 -8.00017,-3.58179 -8.00017,-8.00016 z"
       id="path35"
       inkscape:connector-curvature="0"
       style="fill:#efefef;fill-rule:nonzero" />
    <path
       d="m 504.00394,304.00015 0,0 c 0,-4.41837 3.58179,-8.00015 8.00017,-8.00015 l 191.49574,0 c 2.12177,0 4.15662,0.84286 5.65698,2.3432 1.5003,1.5003 2.34321,3.53518 2.34321,5.65695 l 0,31.99969 c 0,4.41837 -3.58186,8.00016 -8.00019,8.00016 l -191.49574,0 c -4.41838,0 -8.00017,-3.58179 -8.00017,-8.00016 z"
       id="path37"
       inkscape:connector-curvature="0"
       style="stroke:#00ff00;stroke-width:1;stroke-linecap:butt;stroke-linejoin:round" />
    <path
       d="m 607.75198,296 0,-32"
       id="path41"
       inkscape:connector-curvature="0"
       style="fill:#000000;fill-opacity:0;fill-rule:nonzero" />
    <path
       d="m 607.75198,296 0,-20"
       id="path43"
       inkscape:connector-curvature="0"
       style="stroke:#000000;stroke-width:2;stroke-linecap:butt;stroke-linejoin:round" />
    <path
       d="M 611.05545,276 607.75198,266.9238 604.44852,276 z"
       id="path45"
       inkscape:connector-curvature="0"
       style="fill:#000000;fill-rule:evenodd;stroke:#000000;stroke-width:2;stroke-linecap:butt" />
    <path
       d="m 503.5,384.00015 0,0 C 503.5,379.58178 507.08179,376 511.50015,376 l 192.50363,0 c 2.12177,0 4.15662,0.84286 5.65699,2.3432 1.5003,1.5003 2.3432,3.53518 2.3432,5.65695 l 0,31.99969 c 0,4.41837 -3.58185,8.00016 -8.00019,8.00016 l -192.50363,0 C 507.08179,424 503.5,420.41821 503.5,415.99984 z"
       id="path47"
       inkscape:connector-curvature="0"
       style="fill:#efefef;fill-rule:nonzero" />
    <path
       d="m 503.5,384.00015 0,0 C 503.5,379.58178 507.08179,376 511.50015,376 l 192.50363,0 c 2.12177,0 4.15662,0.84286 5.65699,2.3432 1.5003,1.5003 2.3432,3.53518 2.3432,5.65695 l 0,31.99969 c 0,4.41837 -3.58185,8.00016 -8.00019,8.00016 l -192.50363,0 C 507.08179,424 503.5,420.41821 503.5,415.99984 z"
       id="path49"
       inkscape:connector-curvature="0"
       style="stroke:#00ff00;stroke-width:1;stroke-linecap:butt;stroke-linejoin:round" />
    <path
       d="m 607.75398,376 -0.004,-32"
       id="path53"
       inkscape:connector-curvature="0"
       style="fill:#000000;fill-opacity:0;fill-rule:nonzero" />
    <path
       d="m 607.75298,376 -0.002,-20"
       id="path55"
       inkscape:connector-curvature="0"
       style="stroke:#000000;stroke-width:2;stroke-linecap:butt;stroke-linejoin:round" />
    <path
       d="m 611.05545,355.9996 -3.30457,-9.07581 -3.30236,9.0766 z"
       id="path57"
       inkscape:connector-curvature="0"
       style="fill:#000000;fill-rule:evenodd;stroke:#000000;stroke-width:2;stroke-linecap:butt" />
    <path
       d="m 607.5,80 104.50397,0 0,40 L 607.5,120 z"
       id="path63"
       inkscape:connector-curvature="0"
       style="fill:#d9d9d9;fill-rule:nonzero" />
    <path
       d="m 607.5,80 104.50397,0 0,40 L 607.5,120 z"
       id="path65"
       inkscape:connector-curvature="0"
       style="stroke:#0000ff;stroke-width:2;stroke-linecap:butt;stroke-linejoin:round" />
    <path
       d="M 399.49606,80 528,80 l 0,40 -128.50394,0 z"
       id="path69"
       inkscape:connector-curvature="0"
       style="fill:#d9d9d9;fill-rule:nonzero" />
    <path
       d="M 399.49606,80 528,80 l 0,40 -128.50394,0 z"
       id="path71"
       inkscape:connector-curvature="0"
       style="stroke:#0000ff;stroke-width:2;stroke-linecap:butt;stroke-linejoin:round" />
    <path
       d="m 263.5,80 128.50394,0 0,40 L 263.5,120 z"
       id="path75"
       inkscape:connector-curvature="0"
       style="fill:#d9d9d9;fill-rule:nonzero" />
    <path
       d="m 263.5,80 128.50394,0 0,40 L 263.5,120 z"
       id="path77"
       inkscape:connector-curvature="0"
       style="stroke:#0000ff;stroke-width:2;stroke-linecap:butt;stroke-linejoin:round" />
    <path
       d="M 368.00394,192 327.75196,120"
       id="path81"
       inkscape:connector-curvature="0"
       style="fill:#000000;fill-opacity:0;fill-rule:nonzero" />
    <path
       d="m 423.23682,319.12329 -89.62915,-188.649"
       id="path83"
       inkscape:connector-curvature="0"
       style="stroke:#000000;stroke-width:2;stroke-linecap:butt;stroke-linejoin:round;stroke-dasharray:8, 6"
       sodipodi:nodetypes="cc" />
    <path
       d="m 336.49112,128.86227 -7.31241,-6.31021 1.5455,9.53424 z"
       id="path85"
       inkscape:connector-curvature="0"
       style="fill:#000000;fill-rule:evenodd;stroke:#000000;stroke-width:2;stroke-linecap:butt" />
    <path
       d="m 728.50397,144 0,0 c 11.04565,0 20,6.71555 20,14.9996 l 0,37.74883 c 0,8.28406 8.95428,14.9996 20,14.9996 l 0,0 c -11.04572,0 -20,6.71555 -20,14.9996 l 0,37.74883 c 0,8.28406 -8.95435,14.9996 -20,14.9996 z"
       id="path87"
       inkscape:connector-curvature="0"
       style="fill:#000000;fill-opacity:0;fill-rule:nonzero" />
    <path
       d="m 728.50397,144 0,0 c 11.04565,0 20,6.71555 20,14.9996 l 0,37.74883 c 0,8.28406 8.95428,14.9996 20,14.9996 l 0,0 c -11.04572,0 -20,6.71555 -20,14.9996 l 0,37.74883 c 0,8.28406 -8.95435,14.9996 -20,14.9996"
       id="path89"
       inkscape:connector-curvature="0"
       style="fill:#000000;fill-opacity:0;fill-rule:nonzero" />
    <path
       d="m 728.50397,144 0,0 c 11.04565,0 20,6.71555 20,14.9996 l 0,37.74883 c 0,8.28406 8.95428,14.9996 20,14.9996 l 0,0 c -11.04572,0 -20,6.71555 -20,14.9996 l 0,37.74883 c 0,8.28406 -8.95435,14.9996 -20,14.9996"
       id="path91"
       inkscape:connector-curvature="0"
       style="stroke:#000000;stroke-width:2;stroke-linecap:butt;stroke-linejoin:round" />
    <path
       d="m 728.50397,72.50394 0,0 c 11.04565,0 20,2.908356 20,6.496002 l 0,14.756027 0,0 c 0,3.587647 8.95428,6.496001 20,6.496001 l 0,0 c -11.04572,0 -20,2.90836 -20,6.496 l 0,14.75603 c 0,3.58765 -8.95435,6.496 -20,6.496 z"
       id="path93"
       inkscape:connector-curvature="0"
       style="fill:#000000;fill-opacity:0;fill-rule:nonzero" />
    <path
       d="m 728.50397,72.50394 0,0 c 11.04565,0 20,2.908356 20,6.496002 l 0,14.756027 0,0 c 0,3.587647 8.95428,6.496001 20,6.496001 l 0,0 c -11.04572,0 -20,2.90836 -20,6.496 l 0,14.75603 c 0,3.58765 -8.95435,6.496 -20,6.496"
       id="path95"
       inkscape:connector-curvature="0"
       style="fill:#000000;fill-opacity:0;fill-rule:nonzero" />
    <path
       d="m 728.50397,72.50394 0,0 c 11.04565,0 20,2.908356 20,6.496002 l 0,14.756027 0,0 c 0,3.587647 8.95428,6.496001 20,6.496001 l 0,0 c -11.04572,0 -20,2.90836 -20,6.496 l 0,14.75603 c 0,3.58765 -8.95435,6.496 -20,6.496"
       id="path97"
       inkscape:connector-curvature="0"
       style="stroke:#000000;stroke-width:2;stroke-linecap:butt;stroke-linejoin:round" />
    <path
       d="m 728.50397,288 0,0 c 10.90649,0 19.74799,4.47699 19.74799,9.9996 l 0,48.25275 c 0,5.52264 8.84149,9.99963 19.74804,9.99963 l 0,0 c -10.90655,0 -19.74804,4.47696 -19.74804,9.99961 l 0,48.25274 c 0,5.52262 -8.8415,9.99961 -19.74799,9.99961 z"
       id="path99"
       inkscape:connector-curvature="0"
       style="fill:#000000;fill-opacity:0;fill-rule:nonzero" />
    <path
       d="m 728.50397,288 0,0 c 10.90649,0 19.74799,4.47699 19.74799,9.9996 l 0,48.25275 c 0,5.52264 8.84149,9.99963 19.74804,9.99963 l 0,0 c -10.90655,0 -19.74804,4.47696 -19.74804,9.99961 l 0,48.25274 c 0,5.52262 -8.8415,9.99961 -19.74799,9.99961"
       id="path101"
       inkscape:connector-curvature="0"
       style="fill:#000000;fill-opacity:0;fill-rule:nonzero" />
    <path
       d="m 728.50397,288 0,0 c 10.90649,0 19.74799,4.47699 19.74799,9.9996 l 0,48.25275 c 0,5.52264 8.84149,9.99963 19.74804,9.99963 l 0,0 c -10.90655,0 -19.74804,4.47696 -19.74804,9.99961 l 0,48.25274 c 0,5.52262 -8.8415,9.99961 -19.74799,9.99961"
       id="path103"
       inkscape:connector-curvature="0"
       style="stroke:#000000;stroke-width:2;stroke-linecap:butt;stroke-linejoin:round" />
    <path
       d="m 536,80 64,0 0,40 -64,0 z"
       id="path115"
       inkscape:connector-curvature="0"
       style="fill:#d9d9d9;fill-rule:nonzero" />
    <path
       d="m 536,80 64,0 0,40 -64,0 z"
       id="path117"
       inkscape:connector-curvature="0"
       style="stroke:#0000ff;stroke-width:2;stroke-linecap:butt;stroke-linejoin:round" />
    <path
       d="M 608.25195,152 568,120"
       id="path121"
       inkscape:connector-curvature="0"
       style="fill:#000000;fill-opacity:0;fill-rule:nonzero" />
    <path
       d="M 608.25195,152 577.39331,127.46762"
       id="path123"
       inkscape:connector-curvature="0"
       style="stroke:#000000;stroke-width:2;stroke-linecap:butt;stroke-linejoin:round" />
    <path
       d="m 579.4491,124.88174 -9.1604,-3.06225 5.04889,8.23401 z"
       id="path125"
       inkscape:connector-curvature="0"
       style="fill:#000000;fill-rule:evenodd;stroke:#000000;stroke-width:2;stroke-linecap:butt" />
    <path
       d="M 199.49606,80 256,80 l 0,40 -56.50394,0 z"
       id="path127"
       inkscape:connector-curvature="0"
       style="fill:#d9d9d9;fill-rule:nonzero" />
    <path
       d="M 199.49606,80 256,80 l 0,40 -56.50394,0 z"
       id="path129"
       inkscape:connector-curvature="0"
       style="stroke:#0000ff;stroke-width:2;stroke-linecap:butt;stroke-linejoin:round" />
    <path
       d="m 222.53319,104.89447 0,-1.60937 1.60937,0 0,1.60937 -1.60937,0 z m 4.44531,0 0,-1.60937 1.60938,0 0,1.60937 -1.60938,0 z m 4.44531,0 0,-1.60937 1.60938,0 0,1.60937 -1.60938,0 z"
       id="path131"
       inkscape:connector-curvature="0"
       style="fill:#000000;fill-rule:nonzero" />
    <path
       d="M 464,399.50565 463.74802,120.00168"
       id="path133"
       inkscape:connector-curvature="0"
       style="fill:#000000;fill-opacity:0;fill-rule:nonzero" />
    <path
       d="M 464,399.50565 463.75885,132.00168"
       id="path135"
       inkscape:connector-curvature="0"
       style="stroke:#000000;stroke-width:2;stroke-linecap:butt;stroke-linejoin:round" />
    <path
       d="m 467.06232,131.99869 -3.31165,-9.07321 -3.29528,9.07916 z"
       id="path137"
       inkscape:connector-curvature="0"
       style="fill:#000000;fill-rule:evenodd;stroke:#000000;stroke-width:2;stroke-linecap:butt" />
    <path
       d="m 464,367.96442 0,31.52805 40,0"
       id="path139"
       inkscape:connector-curvature="0"
       style="fill:#000000;fill-opacity:0;fill-rule:nonzero" />
    <path
       d="m 464,367.96442 0,31.52805 40,0"
       id="path141"
       inkscape:connector-curvature="0"
       style="stroke:#000000;stroke-width:2;stroke-linecap:butt;stroke-linejoin:round" />
    <flowRoot
       xml:space="preserve"
       id="flowRoot3051"
       style="font-size:40px;font-style:normal;font-weight:normal;text-align:center;line-height:125%;letter-spacing:0px;word-spacing:0px;text-anchor:middle;fill:#000000;fill-opacity:1;stroke:none;font-family:Sans"
       transform="translate(225.92972,86.404108)"><flowRegion
         id="flowRegion3053"><rect
           id="rect3055"
           width="151.67125"
           height="35.068497"
           x="305.09589"
           y="297.0137"
           style="text-align:center;text-anchor:middle" /></flowRegion><flowPara
         id="flowPara3057"
         style="font-size:24px;text-align:center;text-anchor:middle">PODD Plant</flowPara></flowRoot>    <flowRoot
       transform="translate(214.8848,5.746573)"
       style="font-size:40px;font-style:normal;font-weight:normal;text-align:center;line-height:125%;letter-spacing:0px;word-spacing:0px;text-anchor:middle;fill:#000000;fill-opacity:1;stroke:none;font-family:Sans"
       id="flowRoot3059"
       xml:space="preserve"><flowRegion
         id="flowRegion3061"><rect
           y="297.0137"
           x="305.09589"
           height="37.698631"
           width="174.46577"
           id="rect3063"
           style="text-align:center;text-anchor:middle" /></flowRegion><flowPara
         style="font-size:24px;text-align:center;text-anchor:middle"
         id="flowPara3065">PODD Science</flowPara></flowRoot>    <flowRoot
       xml:space="preserve"
       id="flowRoot3067"
       style="font-size:40px;font-style:normal;font-weight:normal;text-align:center;line-height:125%;letter-spacing:0px;word-spacing:0px;text-anchor:middle;fill:#000000;fill-opacity:1;stroke:none;font-family:Sans"
       transform="translate(231.10355,-72.280825)"><flowRegion
         id="flowRegion3069"><rect
           id="rect3071"
           width="142.0274"
           height="35.068501"
           x="305.09589"
           y="297.0137"
           style="text-align:center;text-anchor:middle" /></flowRegion><flowPara
         id="flowPara3073"
         style="font-size:24px;text-align:center;text-anchor:middle">PODD Base</flowPara></flowRoot>    <flowRoot
       transform="translate(199.05277,-139.78768)"
       style="font-size:40px;font-style:normal;font-weight:normal;text-align:center;line-height:125%;letter-spacing:0px;word-spacing:0px;text-anchor:middle;fill:#000000;fill-opacity:1;stroke:none;font-family:Sans"
       id="flowRoot3075"
       xml:space="preserve"><flowRegion
         id="flowRegion3077"><rect
           y="297.0137"
           x="305.09589"
           height="22.794554"
           width="206.02742"
           id="rect3079"
           style="text-align:center;text-anchor:middle" /></flowRegion><flowPara
         style="font-size:16px;text-align:center;text-anchor:middle"
         id="flowPara3081">PODD User Management</flowPara></flowRoot>    <flowRoot
       xml:space="preserve"
       id="flowRoot3083"
       style="font-size:40px;font-style:normal;font-weight:normal;text-align:center;line-height:125%;letter-spacing:0px;word-spacing:0px;text-anchor:middle;fill:#000000;fill-opacity:1;stroke:none;font-family:Sans"
       transform="translate(-41.719183,-208.28008)"><flowRegion
         id="flowRegion3085"><rect
           style="text-align:center;text-anchor:middle"
           id="rect3087"
           width="129.75343"
           height="23.671268"
           x="305.09589"
           y="297.0137" /></flowRegion><flowPara
         id="flowPara3089"
         style="font-size:16px;text-align:center;text-anchor:middle">Crop Ontology</flowPara></flowRoot>    <flowRoot
       transform="translate(95.047942,-208.28008)"
       style="font-size:40px;font-style:normal;font-weight:normal;text-align:center;line-height:125%;letter-spacing:0px;word-spacing:0px;text-anchor:middle;fill:#000000;fill-opacity:1;stroke:none;font-family:Sans"
       id="flowRoot3091"
       xml:space="preserve"><flowRegion
         id="flowRegion3093"><rect
           y="297.0137"
           x="305.09589"
           height="23.671268"
           width="129.75343"
           id="rect3095"
           style="text-align:center;text-anchor:middle" /></flowRegion><flowPara
         style="font-size:16px;text-align:center;text-anchor:middle"
         id="flowPara3097">Plant Ontology</flowPara></flowRoot>    <flowRoot
       xml:space="preserve"
       id="flowRoot3099"
       style="font-size:40px;font-style:normal;font-weight:normal;text-align:center;line-height:125%;letter-spacing:0px;word-spacing:0px;text-anchor:middle;fill:#000000;fill-opacity:1;stroke:none;font-family:Sans"
       transform="translate(234.4452,-208.28008)"><flowRegion
         id="flowRegion3101"><rect
           style="text-align:center;text-anchor:middle"
           id="rect3103"
           width="51.726021"
           height="21.917839"
           x="305.09589"
           y="297.0137" /></flowRegion><flowPara
         id="flowPara3105"
         style="font-size:16px;text-align:center;text-anchor:middle">FOAF</flowPara></flowRoot>    <flowRoot
       transform="translate(305.4589,-208.28008)"
       style="font-size:40px;font-style:normal;font-weight:normal;text-align:center;line-height:125%;letter-spacing:0px;word-spacing:0px;text-anchor:middle;fill:#000000;fill-opacity:1;stroke:none;font-family:Sans"
       id="flowRoot3107"
       xml:space="preserve"><flowRegion
         id="flowRegion3109"><rect
           y="297.0137"
           x="305.09589"
           height="21.041134"
           width="98.191765"
           id="rect3111"
           style="text-align:center;text-anchor:middle" /></flowRegion><flowPara
         style="font-size:16px;text-align:center;text-anchor:middle"
         id="flowPara3113">Dublin Core</flowPara></flowRoot>    <flowRoot
       xml:space="preserve"
       id="flowRoot3115"
       style="font-size:40px;font-style:normal;font-weight:normal;text-align:center;line-height:125%;letter-spacing:0px;word-spacing:0px;text-anchor:middle;fill:#000000;fill-opacity:1;stroke:none;font-family:Sans"
       transform="translate(490.92806,-222.19864)"><flowRegion
         id="flowRegion3117"><rect
           style="text-align:center;text-anchor:middle"
           id="rect3119"
           width="146.41095"
           height="54.356201"
           x="305.09589"
           y="297.0137" /></flowRegion><flowPara
         id="flowPara3121"
         style="font-size:20px;text-align:center;text-anchor:middle">External Ontologies</flowPara></flowRoot>    <flowRoot
       transform="translate(492.20247,-114.36302)"
       style="font-size:40px;font-style:normal;font-weight:normal;text-align:center;line-height:125%;letter-spacing:0px;word-spacing:0px;text-anchor:middle;fill:#000000;fill-opacity:1;stroke:none;font-family:Sans"
       id="flowRoot3123"
       xml:space="preserve"><flowRegion
         id="flowRegion3125"><rect
           y="297.0137"
           x="305.09589"
           height="51.72607"
           width="142.02737"
           id="rect3127"
           style="text-align:center;text-anchor:middle" /></flowRegion><flowPara
         style="font-size:20px;text-align:center;text-anchor:middle"
         id="flowPara3129">PODD Core Ontologies</flowPara></flowRoot>    <flowRoot
       xml:space="preserve"
       id="flowRoot3131"
       style="font-size:40px;font-style:normal;font-weight:normal;text-align:center;line-height:125%;letter-spacing:0px;word-spacing:0px;text-anchor:middle;fill:#000000;fill-opacity:1;stroke:none;font-family:Sans"
       transform="translate(478.17122,32.924654)"><flowRegion
         id="flowRegion3133"><rect
           style="text-align:center;text-anchor:middle"
           id="rect3135"
           width="170.08218"
           height="49.972649"
           x="305.09589"
           y="297.0137" /></flowRegion><flowPara
         id="flowPara3137"
         style="font-size:20px;text-align:center;text-anchor:middle">PODD Extension Ontologies</flowPara></flowRoot>  </g>
</svg>
