<?xml version="1.0" encoding="UTF-8" standalone="no"?>
<svg
   xmlns:dc="http://purl.org/dc/elements/1.1/"
   xmlns:cc="http://creativecommons.org/ns#"
   xmlns:rdf="http://www.w3.org/1999/02/22-rdf-syntax-ns#"
   xmlns:svg="http://www.w3.org/2000/svg"
   xmlns="http://www.w3.org/2000/svg"
   xmlns:sodipodi="http://sodipodi.sourceforge.net/DTD/sodipodi-0.dtd"
   xmlns:inkscape="http://www.inkscape.org/namespaces/inkscape"
   version="1.1"
   viewBox="0 0 764.55262 354"
   stroke-miterlimit="10"
   id="svg2"
   inkscape:version="0.48.3.1 r9886"
   width="100%"
   height="100%"
   sodipodi:docname="podd-ontologies-figure2.svg"
   style="fill:none;stroke:none"
   inkscape:export-filename="/home/peter/gitrepos/podd-publications/s4biodiv2013/podd-ontologies-figure2.png"
   inkscape:export-xdpi="300"
   inkscape:export-ydpi="300">
  <metadata
     id="metadata147">
    <rdf:RDF>
      <cc:Work
         rdf:about="">
        <dc:format>image/svg+xml</dc:format>
        <dc:type
           rdf:resource="http://purl.org/dc/dcmitype/StillImage" />
        <dc:title></dc:title>
      </cc:Work>
    </rdf:RDF>
  </metadata>
  <defs
     id="defs145" />
  <sodipodi:namedview
     pagecolor="#ffffff"
     bordercolor="#666666"
     borderopacity="1"
     objecttolerance="10"
     gridtolerance="10"
     guidetolerance="10"
     inkscape:pageopacity="0"
     inkscape:pageshadow="2"
     inkscape:window-width="1855"
     inkscape:window-height="1055"
     id="namedview143"
     showgrid="false"
     fit-margin-top="0"
     fit-margin-left="0"
     fit-margin-right="0"
     fit-margin-bottom="0"
     inkscape:zoom="1.140625"
     inkscape:cx="467.71019"
     inkscape:cy="106.93597"
     inkscape:window-x="65"
     inkscape:window-y="24"
     inkscape:window-maximized="1"
     inkscape:current-layer="g7" />
  <clipPath
     id="p.0">
    <path
       d="m 0,0 1024,0 0,768 L 0,768 0,0 z"
       clip-rule="nonzero"
       id="path5"
       inkscape:connector-curvature="0" />
  </clipPath>
  <g
     clip-path="url(#p.0)"
     id="g7"
     transform="translate(-198.49999,-71.5)">
    <path
       d="m 0,0 1024,0 0,768 -1024,0 z"
       id="path9"
       inkscape:connector-curvature="0"
       style="fill:#000000;fill-opacity:0;fill-rule:nonzero" />
    <path
       d="m 504.50394,158.6668 0,0 c 0,-3.68196 2.98483,-6.66679 6.66681,-6.66679 l 194.16245,0 c 1.76813,0 3.46387,0.70239 4.71417,1.95266 1.25025,1.25026 1.95264,2.94599 1.95264,4.71413 l 0,26.66641 c 0,3.68196 -2.9848,6.6668 -6.66681,6.6668 l -194.16245,0 0,0 c -3.68198,0 -6.66681,-2.98484 -6.66681,-6.6668 z"
       id="path11"
       inkscape:connector-curvature="0"
       style="fill:#efefef;fill-rule:nonzero" />
    <path
       d="m 504.50394,158.6668 0,0 c 0,-3.68196 2.98483,-6.66679 6.66681,-6.66679 l 194.16245,0 c 1.76813,0 3.46387,0.70239 4.71417,1.95266 1.25025,1.25026 1.95264,2.94599 1.95264,4.71413 l 0,26.66641 c 0,3.68196 -2.9848,6.6668 -6.66681,6.6668 l -194.16245,0 0,0 c -3.68198,0 -6.66681,-2.98484 -6.66681,-6.6668 z"
       id="path13"
       inkscape:connector-curvature="0"
       style="stroke:#00ff00;stroke-width:1;stroke-linecap:butt;stroke-linejoin:round" />
    <path
       d="m 518.3418,177.28125 0,-11.45313 4.32813,0 q 1.14062,0 1.73437,0.10938 0.84375,0.14062 1.40625,0.53125 0.57813,0.39062 0.92188,1.10937 0.35937,0.70313 0.35937,1.5625 0,1.45313 -0.9375,2.46875 -0.92187,1.01563 -3.35937,1.01563 l -2.9375,0 0,4.65625 -1.51563,0 z m 1.51563,-6.01563 2.96875,0 q 1.46875,0 2.07812,-0.54687 0.625,-0.54688 0.625,-1.53125 0,-0.71875 -0.375,-1.23438 -0.35937,-0.51562 -0.95312,-0.67187 -0.375,-0.10938 -1.40625,-0.10938 l -2.9375,0 0,4.09375 z m 8.70312,0.4375 q 0,-2.85937 1.53125,-4.46875 1.53125,-1.60937 3.95313,-1.60937 1.57812,0 2.84375,0.76562 1.28125,0.75 1.95312,2.10938 0.67188,1.34375 0.67188,3.0625 0,1.75 -0.70313,3.125 -0.70312,1.375 -2,2.09375 -1.28125,0.70312 -2.78125,0.70312 -1.60937,0 -2.89062,-0.78125 -1.26563,-0.79687 -1.92188,-2.14062 -0.65625,-1.35938 -0.65625,-2.85938 z m 1.5625,0.0156 q 0,2.07812 1.10938,3.26562 1.10937,1.1875 2.79687,1.1875 1.70313,0 2.8125,-1.20312 1.10938,-1.20313 1.10938,-3.40625 0,-1.40625 -0.48438,-2.4375 -0.46875,-1.04688 -1.375,-1.625 -0.90625,-0.57813 -2.04687,-0.57813 -1.60938,0 -2.76563,1.10938 -1.15625,1.10937 -1.15625,3.6875 z m 11.33594,5.5625 0,-11.45313 3.95312,0 q 1.32813,0 2.03125,0.15625 0.98438,0.23438 1.6875,0.82813 0.90625,0.76562 1.34375,1.95312 0.45313,1.1875 0.45313,2.71875 0,1.3125 -0.3125,2.32813 -0.29688,1 -0.78125,1.65625 -0.46875,0.65625 -1.03125,1.04687 -0.5625,0.375 -1.375,0.57813 -0.79688,0.1875 -1.82813,0.1875 l -4.14062,0 z m 1.51562,-1.35938 2.45313,0 q 1.125,0 1.76562,-0.20312 0.65625,-0.21875 1.03125,-0.59375 0.54688,-0.54688 0.84375,-1.45313 0.29688,-0.90625 0.29688,-2.20312 0,-1.79688 -0.59375,-2.76563 -0.57813,-0.96875 -1.42188,-1.29687 -0.60937,-0.23438 -1.96875,-0.23438 l -2.40625,0 0,8.75 z m 10.03907,1.35938 0,-11.45313 3.95312,0 q 1.32813,0 2.03125,0.15625 0.98438,0.23438 1.6875,0.82813 0.90625,0.76562 1.34375,1.95312 0.45313,1.1875 0.45313,2.71875 0,1.3125 -0.3125,2.32813 -0.29688,1 -0.78125,1.65625 -0.46875,0.65625 -1.03125,1.04687 -0.5625,0.375 -1.375,0.57813 -0.79688,0.1875 -1.82813,0.1875 l -4.14062,0 z m 1.51562,-1.35938 2.45313,0 q 1.125,0 1.76562,-0.20312 0.65625,-0.21875 1.03125,-0.59375 0.54688,-0.54688 0.84375,-1.45313 0.29688,-0.90625 0.29688,-2.20312 0,-1.79688 -0.59375,-2.76563 -0.57813,-0.96875 -1.42188,-1.29687 -0.60937,-0.23438 -1.96875,-0.23438 l -2.40625,0 0,8.75 z m 22,-10.09375 1.51563,0 0,6.60938 q 0,1.73437 -0.39063,2.75 -0.39062,1.01562 -1.40625,1.65625 -1.01562,0.64062 -2.67187,0.64062 -1.60938,0 -2.64063,-0.5625 -1.01562,-0.5625 -1.45312,-1.60937 -0.4375,-1.04688 -0.4375,-2.875 l 0,-6.60938 1.51562,0 0,6.60938 q 0,1.48437 0.26563,2.20312 0.28125,0.70313 0.95312,1.09375 0.6875,0.375 1.65625,0.375 1.67188,0 2.375,-0.75 0.71875,-0.76562 0.71875,-2.92187 l 0,-6.60938 z m 3.30469,8.96875 1.39062,-0.21875 q 0.10938,0.84375 0.64063,1.29688 0.54687,0.4375 1.5,0.4375 0.96875,0 1.4375,-0.39063 0.46875,-0.40625 0.46875,-0.9375 0,-0.46875 -0.40625,-0.75 -0.29688,-0.1875 -1.4375,-0.46875 -1.54688,-0.39062 -2.15625,-0.67187 -0.59375,-0.29688 -0.90625,-0.79688 -0.29688,-0.5 -0.29688,-1.10937 0,-0.5625 0.25,-1.03125 0.25,-0.46875 0.6875,-0.78125 0.32813,-0.25 0.89063,-0.40625 0.57812,-0.17188 1.21875,-0.17188 0.98437,0 1.71875,0.28125 0.73437,0.28125 1.07812,0.76563 0.35938,0.46875 0.5,1.28125 l -1.375,0.1875 q -0.0937,-0.64063 -0.54687,-1 -0.45313,-0.35938 -1.26563,-0.35938 -0.96875,0 -1.39062,0.32813 -0.40625,0.3125 -0.40625,0.73437 0,0.28125 0.17187,0.5 0.17188,0.21875 0.53125,0.375 0.21875,0.0781 1.25,0.35938 1.48438,0.39062 2.07813,0.65625 0.59375,0.25 0.92187,0.73437 0.34375,0.48438 0.34375,1.20313 0,0.70312 -0.42187,1.32812 -0.40625,0.60938 -1.1875,0.95313 -0.76563,0.34375 -1.73438,0.34375 -1.625,0 -2.46875,-0.67188 -0.84375,-0.67187 -1.07812,-2 z m 14.23437,-0.1875 1.45313,0.17188 q -0.34375,1.28125 -1.28125,1.98437 -0.92188,0.70313 -2.35938,0.70313 -1.82812,0 -2.89062,-1.125 -1.0625,-1.125 -1.0625,-3.14063 0,-2.09375 1.07812,-3.25 1.07813,-1.15625 2.79688,-1.15625 1.65625,0 2.70312,1.14063 1.0625,1.125 1.0625,3.17187 0,0.125 0,0.375 l -6.1875,0 q 0.0781,1.375 0.76563,2.10938 0.70312,0.71875 1.73437,0.71875 0.78125,0 1.32813,-0.40625 0.54687,-0.40625 0.85937,-1.29688 z m -4.60937,-2.28125 4.625,0 q -0.0937,-1.04687 -0.53125,-1.5625 -0.67188,-0.8125 -1.73438,-0.8125 -0.96875,0 -1.64062,0.65625 -0.65625,0.64063 -0.71875,1.71875 z m 7.82031,4.95313 0,-8.29688 1.26563,0 0,1.25 q 0.48437,-0.875 0.89062,-1.15625 0.40625,-0.28125 0.90625,-0.28125 0.70313,0 1.4375,0.45313 l -0.48437,1.29687 Q 600.7793,170.25 600.26368,170.25 q -0.45313,0 -0.82813,0.28125 -0.35937,0.26562 -0.51562,0.76562 -0.23438,0.75 -0.23438,1.64063 l 0,4.34375 -1.40625,0 z m 9.91406,0 0,-11.45313 2.28125,0 2.71875,8.10938 q 0.375,1.125 0.54688,1.6875 0.1875,-0.625 0.60937,-1.82813 l 2.73438,-7.96875 2.04687,0 0,11.45313 -1.46875,0 0,-9.59375 -3.32812,9.59375 -1.35938,0 -3.3125,-9.75 0,9.75 -1.46875,0 z M 625.80274,176.25 q -0.78125,0.67187 -1.5,0.95312 -0.71875,0.26563 -1.54688,0.26563 -1.375,0 -2.10937,-0.67188 -0.73438,-0.67187 -0.73438,-1.70312 0,-0.60938 0.28125,-1.10938 0.28125,-0.51562 0.71875,-0.8125 0.45313,-0.3125 1.01563,-0.46875 0.42187,-0.10937 1.25,-0.20312 1.70312,-0.20313 2.51562,-0.48438 0,-0.29687 0,-0.375 0,-0.85937 -0.39062,-1.20312 -0.54688,-0.48438 -1.60938,-0.48438 -0.98437,0 -1.46875,0.35938 -0.46875,0.34375 -0.6875,1.21875 l -1.375,-0.1875 q 0.1875,-0.875 0.60938,-1.42188 0.4375,-0.54687 1.25,-0.82812 0.8125,-0.29688 1.875,-0.29688 1.0625,0 1.71875,0.25 0.67187,0.25 0.98437,0.625 0.3125,0.375 0.4375,0.95313 0.0781,0.35937 0.0781,1.29687 l 0,1.875 q 0,1.96875 0.0781,2.48438 0.0937,0.51562 0.35938,1 l -1.46875,0 q -0.21875,-0.4375 -0.28125,-1.03125 z m -0.10938,-3.14063 q -0.76562,0.3125 -2.29687,0.53125 -0.875,0.125 -1.23438,0.28125 -0.35937,0.15625 -0.5625,0.46875 -0.1875,0.29688 -0.1875,0.65625 0,0.5625 0.42188,0.9375 0.4375,0.375 1.25,0.375 0.8125,0 1.4375,-0.34375 0.64062,-0.35937 0.9375,-0.98437 0.23437,-0.46875 0.23437,-1.40625 l 0,-0.51563 z m 3.60157,4.17188 0,-8.29688 1.26562,0 0,1.17188 q 0.90625,-1.35938 2.64063,-1.35938 0.75,0 1.375,0.26563 0.625,0.26562 0.9375,0.70312 0.3125,0.4375 0.4375,1.04688 0.0781,0.39062 0.0781,1.35937 l 0,5.10938 -1.40625,0 0,-5.04688 q 0,-0.85937 -0.17187,-1.28125 -0.15625,-0.4375 -0.57813,-0.6875 -0.40625,-0.25 -0.96875,-0.25 -0.90625,0 -1.5625,0.57813 -0.64062,0.5625 -0.64062,2.15625 l 0,4.53125 -1.40625,0 z M 643.59961,176.25 q -0.78125,0.67187 -1.5,0.95312 -0.71875,0.26563 -1.54687,0.26563 -1.375,0 -2.10938,-0.67188 -0.73437,-0.67187 -0.73437,-1.70312 0,-0.60938 0.28125,-1.10938 0.28125,-0.51562 0.71875,-0.8125 0.45312,-0.3125 1.01562,-0.46875 0.42188,-0.10937 1.25,-0.20312 1.70313,-0.20313 2.51563,-0.48438 0,-0.29687 0,-0.375 0,-0.85937 -0.39063,-1.20312 -0.54687,-0.48438 -1.60937,-0.48438 -0.98438,0 -1.46875,0.35938 -0.46875,0.34375 -0.6875,1.21875 l -1.375,-0.1875 q 0.1875,-0.875 0.60937,-1.42188 0.4375,-0.54687 1.25,-0.82812 0.8125,-0.29688 1.875,-0.29688 1.0625,0 1.71875,0.25 0.67188,0.25 0.98438,0.625 0.3125,0.375 0.4375,0.95313 0.0781,0.35937 0.0781,1.29687 l 0,1.875 q 0,1.96875 0.0781,2.48438 0.0937,0.51562 0.35937,1 l -1.46875,0 q -0.21875,-0.4375 -0.28125,-1.03125 z m -0.10937,-3.14063 q -0.76563,0.3125 -2.29688,0.53125 -0.875,0.125 -1.23437,0.28125 -0.35938,0.15625 -0.5625,0.46875 -0.1875,0.29688 -0.1875,0.65625 0,0.5625 0.42187,0.9375 0.4375,0.375 1.25,0.375 0.8125,0 1.4375,-0.34375 0.64063,-0.35937 0.9375,-0.98437 0.23438,-0.46875 0.23438,-1.40625 l 0,-0.51563 z m 3.33594,4.85938 1.375,0.20312 q 0.0781,0.64063 0.46875,0.92188 0.53125,0.39062 1.4375,0.39062 0.96875,0 1.5,-0.39062 0.53125,-0.39063 0.71875,-1.09375 0.10937,-0.42188 0.10937,-1.8125 -0.92187,1.09375 -2.29687,1.09375 -1.71875,0 -2.65625,-1.23438 -0.9375,-1.23437 -0.9375,-2.96875 0,-1.1875 0.42187,-2.1875 0.4375,-1 1.25,-1.54687 0.82813,-0.54688 1.92188,-0.54688 1.46875,0 2.42187,1.1875 l 0,-1 1.29688,0 0,7.17188 q 0,1.9375 -0.39063,2.75 -0.39062,0.8125 -1.25,1.28125 -0.85937,0.46875 -2.10937,0.46875 -1.48438,0 -2.40625,-0.67188 -0.90625,-0.67187 -0.875,-2.01562 z m 1.17187,-4.98438 q 0,1.625 0.64063,2.375 0.65625,0.75 1.625,0.75 0.96875,0 1.625,-0.73437 0.65625,-0.75 0.65625,-2.34375 0,-1.53125 -0.67188,-2.29688 -0.67187,-0.78125 -1.625,-0.78125 -0.9375,0 -1.59375,0.76563 -0.65625,0.76562 -0.65625,2.26562 z m 13.66406,1.625 1.45313,0.17188 q -0.34375,1.28125 -1.28125,1.98437 -0.92188,0.70313 -2.35938,0.70313 -1.82812,0 -2.89062,-1.125 -1.0625,-1.125 -1.0625,-3.14063 0,-2.09375 1.07812,-3.25 1.07813,-1.15625 2.79688,-1.15625 1.65625,0 2.70312,1.14063 1.0625,1.125 1.0625,3.17187 0,0.125 0,0.375 l -6.1875,0 q 0.0781,1.375 0.76563,2.10938 0.70312,0.71875 1.73437,0.71875 0.78125,0 1.32813,-0.40625 0.54687,-0.40625 0.85937,-1.29688 z m -4.60937,-2.28125 4.625,0 q -0.0937,-1.04687 -0.53125,-1.5625 -0.67188,-0.8125 -1.73438,-0.8125 -0.96875,0 -1.64062,0.65625 -0.65625,0.64063 -0.71875,1.71875 z m 7.83594,4.95313 0,-8.29688 1.25,0 0,1.15625 q 0.39062,-0.60937 1.03125,-0.96875 0.65625,-0.375 1.48437,-0.375 0.92188,0 1.51563,0.39063 0.59375,0.375 0.82812,1.0625 0.98438,-1.45313 2.5625,-1.45313 1.23438,0 1.89063,0.6875 0.67187,0.67188 0.67187,2.09375 l 0,5.70313 -1.39062,0 0,-5.23438 q 0,-0.84375 -0.14063,-1.20312 -0.14062,-0.375 -0.5,-0.59375 -0.35937,-0.23438 -0.84375,-0.23438 -0.875,0 -1.45312,0.57813 -0.57813,0.57812 -0.57813,1.85937 l 0,4.82813 -1.40625,0 0,-5.39063 q 0,-0.9375 -0.34375,-1.40625 -0.34375,-0.46875 -1.125,-0.46875 -0.59375,0 -1.09375,0.3125 -0.5,0.3125 -0.73437,0.92188 -0.21875,0.59375 -0.21875,1.71875 l 0,4.3125 -1.40625,0 z m 19,-2.67188 1.45312,0.17188 q -0.34375,1.28125 -1.28125,1.98437 -0.92187,0.70313 -2.35937,0.70313 -1.82813,0 -2.89063,-1.125 -1.0625,-1.125 -1.0625,-3.14063 0,-2.09375 1.07813,-3.25 1.07812,-1.15625 2.79687,-1.15625 1.65625,0 2.70313,1.14063 1.0625,1.125 1.0625,3.17187 0,0.125 0,0.375 l -6.1875,0 q 0.0781,1.375 0.76562,2.10938 0.70313,0.71875 1.73438,0.71875 0.78125,0 1.32812,-0.40625 0.54688,-0.40625 0.85938,-1.29688 z m -4.60938,-2.28125 4.625,0 q -0.0937,-1.04687 -0.53125,-1.5625 -0.67187,-0.8125 -1.73437,-0.8125 -0.96875,0 -1.64063,0.65625 -0.65625,0.64063 -0.71875,1.71875 z m 7.83594,4.95313 0,-8.29688 1.26562,0 0,1.17188 q 0.90625,-1.35938 2.64063,-1.35938 0.75,0 1.375,0.26563 0.625,0.26562 0.9375,0.70312 0.3125,0.4375 0.4375,1.04688 0.0781,0.39062 0.0781,1.35937 l 0,5.10938 -1.40625,0 0,-5.04688 q 0,-0.85937 -0.17187,-1.28125 -0.15625,-0.4375 -0.57813,-0.6875 -0.40625,-0.25 -0.96875,-0.25 -0.90625,0 -1.5625,0.57813 -0.64062,0.5625 -0.64062,2.15625 l 0,4.53125 -1.40625,0 z m 11.96094,-1.26563 0.20312,1.25 q -0.59375,0.125 -1.0625,0.125 -0.76562,0 -1.1875,-0.23437 -0.42187,-0.25 -0.59375,-0.64063 -0.17187,-0.40625 -0.17187,-1.67187 l 0,-4.76563 -1.03125,0 0,-1.09375 1.03125,0 0,-2.0625 1.40625,-0.84375 0,2.90625 1.40625,0 0,1.09375 -1.40625,0 0,4.84375 q 0,0.60938 0.0625,0.78125 0.0781,0.17188 0.25,0.28125 0.17187,0.0937 0.48437,0.0937 0.23438,0 0.60938,-0.0625 z"
       id="path15"
       inkscape:connector-curvature="0"
       style="fill:#000000;fill-rule:nonzero" />
    <path
       d="m 504,224.00015 0,0 C 504,219.58178 507.58179,216 512.00018,216 l 191.49573,0 c 2.12177,0 4.15662,0.84286 5.65699,2.34318 1.5003,1.50034 2.3432,3.5352 2.3432,5.65697 l 0,31.99969 c 0,4.41837 -3.58185,8.00016 -8.00019,8.00016 l -191.49573,0 C 507.58179,264 504,260.41821 504,255.99984 z"
       id="path17"
       inkscape:connector-curvature="0"
       style="fill:#efefef;fill-rule:nonzero" />
    <path
       d="m 504,224.00015 0,0 C 504,219.58178 507.58179,216 512.00018,216 l 191.49573,0 c 2.12177,0 4.15662,0.84286 5.65699,2.34318 1.5003,1.50034 2.3432,3.5352 2.3432,5.65697 l 0,31.99969 c 0,4.41837 -3.58185,8.00016 -8.00019,8.00016 l -191.49573,0 C 507.58179,264 504,260.41821 504,255.99984 z"
       id="path19"
       inkscape:connector-curvature="0"
       style="stroke:#00ff00;stroke-width:2;stroke-linecap:butt;stroke-linejoin:round" />
    <path
       d="m 557.2809,246.16406 0,-13.59375 4.42187,0 q 2.5,0 3.26563,0.20312 1.15625,0.29688 1.9375,1.32813 0.79687,1.01562 0.79687,2.64062 0,1.25 -0.45312,2.10938 -0.45313,0.85937 -1.15625,1.34375 -0.70313,0.48437 -1.42188,0.64062 -0.98437,0.20313 -2.84375,0.20313 l -1.79687,0 0,5.125 -2.75,0 z m 2.75,-11.29688 0,3.85938 1.5,0 q 1.625,0 2.17187,-0.21875 0.54688,-0.21875 0.85938,-0.67188 0.3125,-0.45312 0.3125,-1.04687 0,-0.75 -0.4375,-1.23438 -0.4375,-0.48437 -1.09375,-0.59375 -0.5,-0.0937 -1.98438,-0.0937 l -1.32812,0 z m 9.14673,4.57813 q 0,-2.07813 0.625,-3.48438 0.45312,-1.04687 1.25,-1.85937 0.8125,-0.82813 1.76562,-1.23438 1.28125,-0.53125 2.9375,-0.53125 3,0 4.79688,1.85938 1.8125,1.85937 1.8125,5.1875 0,3.29687 -1.79688,5.15625 -1.78125,1.85937 -4.78125,1.85937 -3.03125,0 -4.82812,-1.84375 -1.78125,-1.85937 -1.78125,-5.10937 z m 2.82812,-0.0937 q 0,2.3125 1.0625,3.51562 1.07813,1.1875 2.71875,1.1875 1.64063,0 2.6875,-1.1875 1.04688,-1.1875 1.04688,-3.54687 0,-2.34375 -1.03125,-3.48438 -1.01563,-1.15625 -2.70313,-1.15625 -1.70312,0 -2.75,1.17188 -1.03125,1.15625 -1.03125,3.5 z m 12.23017,-6.78125 5.01562,0 q 1.70313,0 2.59375,0.25 1.1875,0.35937 2.04688,1.26562 0.85937,0.89063 1.29687,2.20313 0.45313,1.29687 0.45313,3.20312 0,1.6875 -0.42188,2.89063 -0.51562,1.48437 -1.45312,2.40625 -0.71875,0.70312 -1.9375,1.09375 -0.90625,0.28125 -2.42188,0.28125 l -5.17187,0 0,-13.59375 z m 2.75,2.29687 0,9 2.04687,0 q 1.14063,0 1.65625,-0.125 0.67188,-0.17187 1.10938,-0.5625 0.4375,-0.40625 0.71875,-1.3125 0.28125,-0.92187 0.28125,-2.5 0,-1.57812 -0.28125,-2.42187 -0.28125,-0.84375 -0.78125,-1.3125 -0.5,-0.46875 -1.26563,-0.64063 -0.57812,-0.125 -2.25,-0.125 l -1.23437,0 z m 10.72296,-2.29687 5.01562,0 q 1.70313,0 2.59375,0.25 1.1875,0.35937 2.04688,1.26562 0.85937,0.89063 1.29687,2.20313 0.45313,1.29687 0.45313,3.20312 0,1.6875 -0.42188,2.89063 -0.51562,1.48437 -1.45312,2.40625 -0.71875,0.70312 -1.9375,1.09375 -0.90625,0.28125 -2.42188,0.28125 l -5.17187,0 0,-13.59375 z m 2.75,2.29687 0,9 2.04687,0 q 1.14063,0 1.65625,-0.125 0.67188,-0.17187 1.10938,-0.5625 0.4375,-0.40625 0.71875,-1.3125 0.28125,-0.92187 0.28125,-2.5 0,-1.57812 -0.28125,-2.42187 -0.28125,-0.84375 -0.78125,-1.3125 -0.5,-0.46875 -1.26563,-0.64063 -0.57812,-0.125 -2.25,-0.125 l -1.23437,0 z m 15.92187,-2.29687 5.4375,0 q 1.60938,0 2.40625,0.14062 0.79688,0.125 1.42188,0.54688 0.625,0.42187 1.03125,1.14062 0.42187,0.70313 0.42187,1.59375 0,0.95313 -0.51562,1.75 -0.5,0.79688 -1.39063,1.1875 1.25,0.375 1.90625,1.25 0.67188,0.85938 0.67188,2.04688 0,0.92187 -0.4375,1.79687 -0.42188,0.875 -1.17188,1.40625 -0.75,0.51563 -1.84375,0.64063 -0.6875,0.0781 -3.3125,0.0937 l -4.625,0 0,-13.59375 z m 2.75,2.25 0,3.15625 1.79688,0 q 1.60937,0 2,-0.0469 0.70312,-0.0937 1.09375,-0.48437 0.40625,-0.40625 0.40625,-1.0625 0,-0.64063 -0.34375,-1.03125 -0.34375,-0.39063 -1.03125,-0.48438 -0.40625,-0.0469 -2.34375,-0.0469 l -1.57813,0 z m 0,5.42187 0,3.625 2.54688,0 q 1.48437,0 1.875,-0.0781 0.60937,-0.10938 1,-0.53125 0.39062,-0.4375 0.39062,-1.17188 0,-0.60937 -0.29687,-1.03125 -0.29688,-0.42187 -0.85938,-0.60937 -0.5625,-0.20313 -2.4375,-0.20313 l -2.21875,0 z m 12.64478,-0.92187 -2.35938,-0.4375 q 0.39063,-1.42188 1.35938,-2.10938 0.98437,-0.6875 2.90625,-0.6875 1.73437,0 2.59375,0.42188 0.85937,0.40625 1.20312,1.04687 0.34375,0.625 0.34375,2.32813 l -0.0312,3.04687 q 0,1.29688 0.125,1.92188 0.125,0.60937 0.46875,1.3125 l -2.57812,0 q -0.0937,-0.26563 -0.25,-0.76563 -0.0625,-0.23437 -0.0937,-0.3125 -0.65625,0.65625 -1.42188,0.98438 -0.76562,0.3125 -1.625,0.3125 -1.51562,0 -2.40625,-0.8125 -0.875,-0.82813 -0.875,-2.09375 0,-0.84375 0.39063,-1.48438 0.40625,-0.65625 1.125,-1 0.71875,-0.35937 2.07812,-0.625 1.82813,-0.32812 2.53125,-0.625 l 0,-0.26562 q 0,-0.75 -0.375,-1.0625 -0.35937,-0.32813 -1.39062,-0.32813 -0.70313,0 -1.09375,0.28125 -0.39063,0.26563 -0.625,0.95313 z m 3.48437,2.10937 q -0.5,0.17188 -1.59375,0.40625 -1.07812,0.23438 -1.40625,0.45313 -0.51562,0.35937 -0.51562,0.92187 0,0.54688 0.40625,0.95313 0.40625,0.39062 1.04687,0.39062 0.70313,0 1.34375,-0.46875 0.46875,-0.35937 0.625,-0.85937 0.0937,-0.34375 0.0937,-1.28125 l 0,-0.51563 z m 4.03199,1.92188 2.60937,-0.39063 q 0.17188,0.75 0.67188,1.15625 0.51562,0.39063 1.4375,0.39063 1,0 1.51562,-0.375 0.34375,-0.26563 0.34375,-0.70313 0,-0.29687 -0.1875,-0.48437 -0.1875,-0.1875 -0.875,-0.34375 -3.14062,-0.70313 -4,-1.26563 -1.15625,-0.79687 -1.15625,-2.21875 0,-1.28125 1,-2.15625 1.01563,-0.875 3.14063,-0.875 2.03125,0 3,0.65625 0.98437,0.65625 1.35937,1.95313 l -2.45312,0.45312 q -0.15625,-0.57812 -0.60938,-0.875 -0.4375,-0.3125 -1.25,-0.3125 -1.03125,0 -1.46875,0.29688 -0.29687,0.20312 -0.29687,0.51562 0,0.28125 0.25,0.48438 0.35937,0.25 2.4375,0.73437 2.07812,0.46875 2.90625,1.15625 0.82812,0.6875 0.82812,1.9375 0,1.35938 -1.14062,2.32813 -1.125,0.96875 -3.34375,0.96875 -2.01563,0 -3.1875,-0.8125 -1.17188,-0.8125 -1.53125,-2.21875 z m 16.9851,-0.32813 2.60938,0.4375 q -0.5,1.4375 -1.59375,2.1875 -1.07813,0.73438 -2.70313,0.73438 -2.5625,0 -3.79687,-1.67188 -0.96875,-1.34375 -0.96875,-3.40625 0,-2.4375 1.26562,-3.82812 1.28125,-1.39063 3.25,-1.39063 2.1875,0 3.45313,1.45313 1.28125,1.45312 1.23437,4.45312 l -6.53125,0 q 0.0156,1.15625 0.625,1.8125 0.60938,0.64063 1.5,0.64063 0.60938,0 1.03125,-0.32813 0.42188,-0.34375 0.625,-1.09375 z m 0.15625,-2.625 q -0.0312,-1.14062 -0.59375,-1.71875 -0.54687,-0.59375 -1.34375,-0.59375 -0.85937,0 -1.40625,0.625 -0.5625,0.60938 -0.54687,1.6875 l 3.89062,0 z"
       id="path21"
       inkscape:connector-curvature="0"
       style="fill:#000000;fill-rule:nonzero" />
    <path
       d="m 608.25195,152 51.5,-32"
       id="path23"
       inkscape:connector-curvature="0"
       style="fill:#000000;fill-opacity:0;fill-rule:nonzero" />
    <path
       d="m 608.25195,152 41.30737,-25.66672"
       id="path25"
       inkscape:connector-curvature="0"
       style="stroke:#000000;stroke-width:2;stroke-linecap:butt;stroke-linejoin:round" />
    <path
       d="m 651.30286,129.13919 5.9657,-7.59608 -9.4527,1.98426 z"
       id="path27"
       inkscape:connector-curvature="0"
       style="fill:#000000;fill-rule:evenodd;stroke:#000000;stroke-width:2;stroke-linecap:butt" />
    <path
       d="m 607.74805,216 0.50391,-24"
       id="path29"
       inkscape:connector-curvature="0"
       style="fill:#000000;fill-opacity:0;fill-rule:nonzero" />
    <path
       d="m 607.74805,216 0.25201,-12.00264"
       id="path31"
       inkscape:connector-curvature="0"
       style="stroke:#000000;stroke-width:2;stroke-linecap:butt;stroke-linejoin:round" />
    <path
       d="m 611.3028,204.06671 -3.11218,-9.14356 -3.49329,9.00486 z"
       id="path33"
       inkscape:connector-curvature="0"
       style="fill:#000000;fill-rule:evenodd;stroke:#000000;stroke-width:2;stroke-linecap:butt" />
    <path
       d="m 504,304.00015 0,0 C 504,299.58178 507.58179,296 512.00018,296 l 191.49573,0 c 2.12177,0 4.15662,0.84286 5.65699,2.3432 1.5003,1.5003 2.3432,3.53518 2.3432,5.65695 l 0,31.99969 c 0,4.41837 -3.58185,8.00016 -8.00019,8.00016 l -191.49573,0 C 507.58179,344 504,340.41821 504,335.99984 z"
       id="path35"
       inkscape:connector-curvature="0"
       style="fill:#efefef;fill-rule:nonzero" />
    <path
       d="m 504,304.00015 0,0 C 504,299.58178 507.58179,296 512.00018,296 l 191.49573,0 c 2.12177,0 4.15662,0.84286 5.65699,2.3432 1.5003,1.5003 2.3432,3.53518 2.3432,5.65695 l 0,31.99969 c 0,4.41837 -3.58185,8.00016 -8.00019,8.00016 l -191.49573,0 C 507.58179,344 504,340.41821 504,335.99984 z"
       id="path37"
       inkscape:connector-curvature="0"
       style="stroke:#00ff00;stroke-width:1;stroke-linecap:butt;stroke-linejoin:round" />
    <path
       d="m 546.4888,326.16406 0,-13.59375 5.125,0 q 1.35937,0 2.07812,0.125 1,0.17187 1.67188,0.64062 0.67187,0.46875 1.07812,1.3125 0.42188,0.84375 0.42188,1.84375 0,1.73438 -1.10938,2.9375 -1.09375,1.20313 -3.98437,1.20313 l -3.48438,0 0,5.53125 -1.79687,0 z m 1.79687,-7.14063 3.51563,0 q 1.75,0 2.46875,-0.64062 0.73437,-0.65625 0.73437,-1.82813 0,-0.85937 -0.4375,-1.46875 -0.42187,-0.60937 -1.125,-0.79687 -0.45312,-0.125 -1.67187,-0.125 l -3.48438,0 0,4.85937 z m 10.09986,0.51563 q 0,-3.39063 1.8125,-5.29688 1.82812,-1.92187 4.70312,-1.92187 1.875,0 3.39063,0.90625 1.51562,0.89062 2.29687,2.5 0.79688,1.60937 0.79688,3.65625 0,2.0625 -0.84375,3.70312 -0.82813,1.625 -2.35938,2.46875 -1.53125,0.84375 -3.29687,0.84375 -1.92188,0 -3.4375,-0.92187 -1.5,-0.9375 -2.28125,-2.53125 -0.78125,-1.60938 -0.78125,-3.40625 z m 1.85937,0.0312 q 0,2.45312 1.3125,3.875 1.32813,1.40625 3.3125,1.40625 2.03125,0 3.34375,-1.42188 1.3125,-1.4375 1.3125,-4.0625 0,-1.65625 -0.5625,-2.89062 -0.54687,-1.23438 -1.64062,-1.92188 -1.07813,-0.6875 -2.42188,-0.6875 -1.90625,0 -3.28125,1.3125 -1.375,1.3125 -1.375,4.39063 z m 13.19892,6.59375 0,-13.59375 4.6875,0 q 1.57812,0 2.42187,0.1875 1.15625,0.26562 1.98438,0.96875 1.07812,0.92187 1.60937,2.34375 0.53125,1.40625 0.53125,3.21875 0,1.54687 -0.35937,2.75 -0.35938,1.1875 -0.92188,1.98437 -0.5625,0.78125 -1.23437,1.23438 -0.67188,0.4375 -1.625,0.67187 -0.95313,0.23438 -2.1875,0.23438 l -4.90625,0 z m 1.79687,-1.60938 2.90625,0 q 1.34375,0 2.10938,-0.25 0.76562,-0.25 1.21875,-0.70312 0.64062,-0.64063 1,-1.71875 0.35937,-1.07813 0.35937,-2.625 0,-2.125 -0.70312,-3.26563 -0.70313,-1.15625 -1.70313,-1.54687 -0.71875,-0.28125 -2.32812,-0.28125 l -2.85938,0 0,10.39062 z m 11.67609,1.60938 0,-13.59375 4.6875,0 q 1.57812,0 2.42187,0.1875 1.15625,0.26562 1.98438,0.96875 1.07812,0.92187 1.60937,2.34375 0.53125,1.40625 0.53125,3.21875 0,1.54687 -0.35937,2.75 -0.35938,1.1875 -0.92188,1.98437 -0.5625,0.78125 -1.23437,1.23438 -0.67188,0.4375 -1.625,0.67187 -0.95313,0.23438 -2.1875,0.23438 l -4.90625,0 z m 1.79687,-1.60938 2.90625,0 q 1.34375,0 2.10938,-0.25 0.76562,-0.25 1.21875,-0.70312 0.64062,-0.64063 1,-1.71875 0.35937,-1.07813 0.35937,-2.625 0,-2.125 -0.70312,-3.26563 -0.70313,-1.15625 -1.70313,-1.54687 -0.71875,-0.28125 -2.32812,-0.28125 l -2.85938,0 0,10.39062 z m 16.25,-2.76562 1.6875,-0.14063 q 0.125,1.01563 0.5625,1.67188 0.4375,0.65625 1.35938,1.0625 0.9375,0.40625 2.09375,0.40625 1.03125,0 1.8125,-0.3125 0.79687,-0.3125 1.1875,-0.84375 0.39062,-0.53125 0.39062,-1.15625 0,-0.64063 -0.375,-1.10938 -0.375,-0.48437 -1.23437,-0.8125 -0.54688,-0.21875 -2.42188,-0.65625 -1.875,-0.45312 -2.625,-0.85937 -0.96875,-0.51563 -1.45312,-1.26563 -0.46875,-0.75 -0.46875,-1.6875 0,-1.03125 0.57812,-1.92187 0.59375,-0.90625 1.70313,-1.35938 1.125,-0.46875 2.5,-0.46875 1.51562,0 2.67187,0.48438 1.15625,0.48437 1.76563,1.4375 0.625,0.9375 0.67187,2.14062 l -1.71875,0.125 q -0.14062,-1.28125 -0.95312,-1.9375 -0.79688,-0.67187 -2.35938,-0.67187 -1.625,0 -2.375,0.60937 -0.75,0.59375 -0.75,1.4375 0,0.73438 0.53125,1.20313 0.51563,0.46875 2.70313,0.96875 2.20312,0.5 3.01562,0.875 1.1875,0.54687 1.75,1.39062 0.57813,0.82813 0.57813,1.92188 0,1.09375 -0.625,2.0625 -0.625,0.95312 -1.79688,1.48437 -1.15625,0.53125 -2.60937,0.53125 -1.84375,0 -3.09375,-0.53125 -1.25,-0.54687 -1.96875,-1.625 -0.70313,-1.07812 -0.73438,-2.45312 z m 19.27167,0.76562 1.64063,0.21875 q -0.26563,1.6875 -1.375,2.65625 -1.10938,0.95313 -2.73438,0.95313 -2.01562,0 -3.25,-1.3125 -1.21875,-1.32813 -1.21875,-3.79688 0,-1.59375 0.51563,-2.78125 0.53125,-1.20312 1.60937,-1.79687 1.09375,-0.60938 2.35938,-0.60938 1.60937,0 2.625,0.8125 1.01562,0.8125 1.3125,2.3125 l -1.625,0.25 q -0.23438,-1 -0.82813,-1.5 -0.59375,-0.5 -1.42187,-0.5 -1.26563,0 -2.0625,0.90625 -0.78125,0.90625 -0.78125,2.85938 0,1.98437 0.76562,2.89062 0.76563,0.89063 1.98438,0.89063 0.98437,0 1.64062,-0.59375 0.65625,-0.60938 0.84375,-1.85938 z m 2.90625,-8.07812 0,-1.90625 1.67188,0 0,1.90625 -1.67188,0 z m 0,11.6875 0,-9.85938 1.67188,0 0,9.85938 -1.67188,0 z m 10.87921,-3.17188 1.71875,0.21875 q -0.40625,1.5 -1.51562,2.34375 -1.09375,0.82813 -2.8125,0.82813 -2.15625,0 -3.42188,-1.32813 -1.26562,-1.32812 -1.26562,-3.73437 0,-2.48438 1.26562,-3.85938 1.28125,-1.375 3.32813,-1.375 1.98437,0 3.23437,1.34375 1.25,1.34375 1.25,3.79688 0,0.14062 -0.0156,0.4375 l -7.34375,0 q 0.0937,1.625 0.92187,2.48437 0.82813,0.85938 2.0625,0.85938 0.90625,0 1.54688,-0.46875 0.65625,-0.48438 1.04687,-1.54688 z m -5.48437,-2.70312 5.5,0 q -0.10938,-1.23438 -0.625,-1.85938 -0.79688,-0.96875 -2.07813,-0.96875 -1.14062,0 -1.9375,0.78125 -0.78125,0.76563 -0.85937,2.04688 z m 9.1101,5.875 0,-9.85938 1.5,0 0,1.40625 q 1.09375,-1.625 3.14063,-1.625 0.89062,0 1.64062,0.32813 0.75,0.3125 1.10938,0.84375 0.375,0.51562 0.53125,1.21875 0.0937,0.46875 0.0937,1.625 l 0,6.0625 -1.67188,0 0,-6 q 0,-1.01563 -0.20312,-1.51563 -0.1875,-0.51562 -0.6875,-0.8125 -0.5,-0.29687 -1.17188,-0.29687 -1.0625,0 -1.84375,0.67187 -0.76562,0.67188 -0.76562,2.57813 l 0,5.375 -1.67188,0 z m 16.81317,-3.60938 1.64063,0.21875 q -0.26563,1.6875 -1.375,2.65625 -1.10938,0.95313 -2.73438,0.95313 -2.01562,0 -3.25,-1.3125 -1.21875,-1.32813 -1.21875,-3.79688 0,-1.59375 0.51563,-2.78125 0.53125,-1.20312 1.60937,-1.79687 1.09375,-0.60938 2.35938,-0.60938 1.60937,0 2.625,0.8125 1.01562,0.8125 1.3125,2.3125 l -1.625,0.25 q -0.23438,-1 -0.82813,-1.5 -0.59375,-0.5 -1.42187,-0.5 -1.26563,0 -2.0625,0.90625 -0.78125,0.90625 -0.78125,2.85938 0,1.98437 0.76562,2.89062 0.76563,0.89063 1.98438,0.89063 0.98437,0 1.64062,-0.59375 0.65625,-0.60938 0.84375,-1.85938 z m 9.64063,0.4375 1.71875,0.21875 q -0.40625,1.5 -1.51563,2.34375 -1.09375,0.82813 -2.8125,0.82813 -2.15625,0 -3.42187,-1.32813 -1.26563,-1.32812 -1.26563,-3.73437 0,-2.48438 1.26563,-3.85938 1.28125,-1.375 3.32812,-1.375 1.98438,0 3.23438,1.34375 1.25,1.34375 1.25,3.79688 0,0.14062 -0.0156,0.4375 l -7.34375,0 q 0.0937,1.625 0.92188,2.48437 0.82812,0.85938 2.0625,0.85938 0.90625,0 1.54687,-0.46875 0.65625,-0.48438 1.04688,-1.54688 z m -5.48438,-2.70312 5.5,0 q -0.10937,-1.23438 -0.625,-1.85938 -0.79687,-0.96875 -2.07812,-0.96875 -1.14063,0 -1.9375,0.78125 -0.78125,0.76563 -0.85938,2.04688 z"
       id="path39"
       inkscape:connector-curvature="0"
       style="fill:#000000;fill-rule:nonzero" />
    <path
       d="m 607.74805,296 0,-32"
       id="path41"
       inkscape:connector-curvature="0"
       style="fill:#000000;fill-opacity:0;fill-rule:nonzero" />
    <path
       d="m 607.74805,296 0,-20"
       id="path43"
       inkscape:connector-curvature="0"
       style="stroke:#000000;stroke-width:2;stroke-linecap:butt;stroke-linejoin:round" />
    <path
       d="M 611.0515,276 607.74803,266.9238 604.44457,276 z"
       id="path45"
       inkscape:connector-curvature="0"
       style="fill:#000000;fill-rule:evenodd;stroke:#000000;stroke-width:2;stroke-linecap:butt" />
    <path
       d="m 503.5,384.00015 0,0 C 503.5,379.58178 507.08179,376 511.50015,376 l 192.50363,0 c 2.12177,0 4.15662,0.84286 5.65699,2.3432 1.5003,1.5003 2.3432,3.53518 2.3432,5.65695 l 0,31.99969 c 0,4.41837 -3.58185,8.00016 -8.00019,8.00016 l -192.50363,0 C 507.08179,424 503.5,420.41821 503.5,415.99984 z"
       id="path47"
       inkscape:connector-curvature="0"
       style="fill:#efefef;fill-rule:nonzero" />
    <path
       d="m 503.5,384.00015 0,0 C 503.5,379.58178 507.08179,376 511.50015,376 l 192.50363,0 c 2.12177,0 4.15662,0.84286 5.65699,2.3432 1.5003,1.5003 2.3432,3.53518 2.3432,5.65695 l 0,31.99969 c 0,4.41837 -3.58185,8.00016 -8.00019,8.00016 l -192.50363,0 C 507.08179,424 503.5,420.41821 503.5,415.99984 z"
       id="path49"
       inkscape:connector-curvature="0"
       style="stroke:#00ff00;stroke-width:1;stroke-linecap:butt;stroke-linejoin:round" />
    <path
       d="m 558.41705,406.16406 0,-13.59375 5.125,0 q 1.35938,0 2.07813,0.125 1,0.17187 1.67187,0.64062 0.67188,0.46875 1.07813,1.3125 0.42187,0.84375 0.42187,1.84375 0,1.73438 -1.10937,2.9375 -1.09375,1.20313 -3.98438,1.20313 l -3.48437,0 0,5.53125 -1.79688,0 z m 1.79688,-7.14063 3.51562,0 q 1.75,0 2.46875,-0.64062 0.73438,-0.65625 0.73438,-1.82813 0,-0.85937 -0.4375,-1.46875 -0.42188,-0.60937 -1.125,-0.79687 -0.45313,-0.125 -1.67188,-0.125 l -3.48437,0 0,4.85937 z m 10.09979,0.51563 q 0,-3.39063 1.8125,-5.29688 1.82812,-1.92187 4.70312,-1.92187 1.875,0 3.39063,0.90625 1.51562,0.89062 2.29687,2.5 0.79688,1.60937 0.79688,3.65625 0,2.0625 -0.84375,3.70312 -0.82813,1.625 -2.35938,2.46875 -1.53125,0.84375 -3.29687,0.84375 -1.92188,0 -3.4375,-0.92187 -1.5,-0.9375 -2.28125,-2.53125 -0.78125,-1.60938 -0.78125,-3.40625 z m 1.85937,0.0312 q 0,2.45312 1.3125,3.875 1.32813,1.40625 3.3125,1.40625 2.03125,0 3.34375,-1.42188 1.3125,-1.4375 1.3125,-4.0625 0,-1.65625 -0.5625,-2.89062 -0.54687,-1.23438 -1.64062,-1.92188 -1.07813,-0.6875 -2.42188,-0.6875 -1.90625,0 -3.28125,1.3125 -1.375,1.3125 -1.375,4.39063 z m 13.19898,6.59375 0,-13.59375 4.6875,0 q 1.57812,0 2.42187,0.1875 1.15625,0.26562 1.98438,0.96875 1.07812,0.92187 1.60937,2.34375 0.53125,1.40625 0.53125,3.21875 0,1.54687 -0.35937,2.75 -0.35938,1.1875 -0.92188,1.98437 -0.5625,0.78125 -1.23437,1.23438 -0.67188,0.4375 -1.625,0.67187 -0.95313,0.23438 -2.1875,0.23438 l -4.90625,0 z m 1.79687,-1.60938 2.90625,0 q 1.34375,0 2.10938,-0.25 0.76562,-0.25 1.21875,-0.70312 0.64062,-0.64063 1,-1.71875 0.35937,-1.07813 0.35937,-2.625 0,-2.125 -0.70312,-3.26563 -0.70313,-1.15625 -1.70313,-1.54687 -0.71875,-0.28125 -2.32812,-0.28125 l -2.85938,0 0,10.39062 z m 11.67603,1.60938 0,-13.59375 4.6875,0 q 1.57812,0 2.42187,0.1875 1.15625,0.26562 1.98438,0.96875 1.07812,0.92187 1.60937,2.34375 0.53125,1.40625 0.53125,3.21875 0,1.54687 -0.35937,2.75 -0.35938,1.1875 -0.92188,1.98437 -0.5625,0.78125 -1.23437,1.23438 -0.67188,0.4375 -1.625,0.67187 -0.95313,0.23438 -2.1875,0.23438 l -4.90625,0 z m 1.79687,-1.60938 2.90625,0 q 1.34375,0 2.10938,-0.25 0.76562,-0.25 1.21875,-0.70312 0.64062,-0.64063 1,-1.71875 0.35937,-1.07813 0.35937,-2.625 0,-2.125 -0.70312,-3.26563 -0.70313,-1.15625 -1.70313,-1.54687 -0.71875,-0.28125 -2.32812,-0.28125 l -2.85938,0 0,10.39062 z m 16.85938,1.60938 0,-13.59375 5.125,0 q 1.35937,0 2.07812,0.125 1,0.17187 1.67188,0.64062 0.67187,0.46875 1.07812,1.3125 0.42188,0.84375 0.42188,1.84375 0,1.73438 -1.10938,2.9375 -1.09375,1.20313 -3.98437,1.20313 l -3.48438,0 0,5.53125 -1.79687,0 z m 1.79687,-7.14063 3.51563,0 q 1.75,0 2.46875,-0.64062 0.73437,-0.65625 0.73437,-1.82813 0,-0.85937 -0.4375,-1.46875 -0.42187,-0.60937 -1.125,-0.79687 -0.45312,-0.125 -1.67187,-0.125 l -3.48438,0 0,4.85937 z m 10.39673,7.14063 0,-13.59375 1.67188,0 0,13.59375 -1.67188,0 z m 10.61359,-1.21875 q -0.9375,0.79687 -1.79688,1.125 -0.85937,0.3125 -1.84375,0.3125 -1.60937,0 -2.48437,-0.78125 -0.875,-0.79688 -0.875,-2.03125 0,-0.73438 0.32812,-1.32813 0.32813,-0.59375 0.85938,-0.95312 0.53125,-0.35938 1.20312,-0.54688 0.5,-0.14062 1.48438,-0.25 2.03125,-0.25 2.98437,-0.57812 0,-0.34375 0,-0.4375 0,-1.01563 -0.46875,-1.4375 -0.64062,-0.5625 -1.90625,-0.5625 -1.17187,0 -1.73437,0.40625 -0.5625,0.40625 -0.82813,1.46875 l -1.64062,-0.23438 q 0.23437,-1.04687 0.73437,-1.6875 0.51563,-0.64062 1.46875,-0.98437 0.96875,-0.35938 2.25,-0.35938 1.26563,0 2.04688,0.29688 0.78125,0.29687 1.15625,0.75 0.375,0.45312 0.51562,1.14062 0.0937,0.42188 0.0937,1.53125 l 0,2.23438 q 0,2.32812 0.0937,2.95312 0.10938,0.60938 0.4375,1.17188 l -1.75,0 q -0.26562,-0.51563 -0.32812,-1.21875 z m -0.14063,-3.71875 q -0.90625,0.35937 -2.73437,0.625 -1.03125,0.14062 -1.45313,0.32812 -0.42187,0.1875 -0.65625,0.54688 -0.23437,0.35937 -0.23437,0.79687 0,0.67188 0.5,1.125 0.51562,0.4375 1.48437,0.4375 0.96875,0 1.71875,-0.42187 0.75,-0.4375 1.10938,-1.15625 0.26562,-0.57813 0.26562,-1.67188 l 0,-0.60937 z m 4.0788,4.9375 0,-9.85938 1.5,0 0,1.40625 q 1.09375,-1.625 3.14062,-1.625 0.89063,0 1.64063,0.32813 0.75,0.3125 1.10937,0.84375 0.375,0.51562 0.53125,1.21875 0.0937,0.46875 0.0937,1.625 l 0,6.0625 -1.67187,0 0,-6 q 0,-1.01563 -0.20313,-1.51563 -0.1875,-0.51562 -0.6875,-0.8125 -0.5,-0.29687 -1.17187,-0.29687 -1.0625,0 -1.84375,0.67187 -0.76563,0.67188 -0.76563,2.57813 l 0,5.375 -1.67187,0 z m 14.03198,-1.5 0.23438,1.48437 q -0.70313,0.14063 -1.26563,0.14063 -0.90625,0 -1.40625,-0.28125 -0.5,-0.29688 -0.70312,-0.75 -0.20313,-0.46875 -0.20313,-1.98438 l 0,-5.65625 -1.23437,0 0,-1.3125 1.23437,0 0,-2.4375 1.65625,-1 0,3.4375 1.6875,0 0,1.3125 -1.6875,0 0,5.75 q 0,0.71875 0.0781,0.92188 0.0937,0.20312 0.29687,0.32812 0.20313,0.125 0.57813,0.125 0.26562,0 0.73437,-0.0781 z"
       id="path51"
       inkscape:connector-curvature="0"
       style="fill:#000000;fill-rule:nonzero" />
    <path
       d="m 607.75195,376 -0.004,-32"
       id="path53"
       inkscape:connector-curvature="0"
       style="fill:#000000;fill-opacity:0;fill-rule:nonzero" />
    <path
       d="m 607.75195,376 -0.002,-20"
       id="path55"
       inkscape:connector-curvature="0"
       style="stroke:#000000;stroke-width:2;stroke-linecap:butt;stroke-linejoin:round" />
    <path
       d="m 611.053,355.9996 -3.30457,-9.07581 -3.30236,9.0766 z"
       id="path57"
       inkscape:connector-curvature="0"
       style="fill:#000000;fill-rule:evenodd;stroke:#000000;stroke-width:2;stroke-linecap:butt" />
    <path
       d="m 769,176.50394 207.49603,0 0,63.49606 L 769,240 z"
       id="path59"
       inkscape:connector-curvature="0"
       style="fill:#000000;fill-opacity:0;fill-rule:nonzero" />
    <path
       d="m 779.46875,214.41603 0,-13.59375 5.125,0 q 1.35937,0 2.07812,0.125 1,0.17187 1.67188,0.64062 0.67187,0.46875 1.07812,1.3125 0.42188,0.84375 0.42188,1.84375 0,1.73438 -1.10938,2.9375 -1.09375,1.20313 -3.98437,1.20313 l -3.48438,0 0,5.53125 -1.79687,0 z m 1.79687,-7.14063 3.51563,0 q 1.75,0 2.46875,-0.64062 0.73437,-0.65625 0.73437,-1.82813 0,-0.85937 -0.4375,-1.46875 -0.42187,-0.60937 -1.125,-0.79687 -0.45312,-0.125 -1.67187,-0.125 l -3.48438,0 0,4.85937 z m 10.09986,0.51563 q 0,-3.39063 1.8125,-5.29688 1.82812,-1.92187 4.70312,-1.92187 1.875,0 3.39063,0.90625 1.51562,0.89062 2.29687,2.5 0.79688,1.60937 0.79688,3.65625 0,2.0625 -0.84375,3.70312 -0.82813,1.625 -2.35938,2.46875 -1.53125,0.84375 -3.29687,0.84375 -1.92188,0 -3.4375,-0.92187 -1.5,-0.9375 -2.28125,-2.53125 -0.78125,-1.60938 -0.78125,-3.40625 z m 1.85937,0.0312 q 0,2.45312 1.3125,3.875 1.32813,1.40625 3.3125,1.40625 2.03125,0 3.34375,-1.42188 1.3125,-1.4375 1.3125,-4.0625 0,-1.65625 -0.5625,-2.89062 -0.54687,-1.23438 -1.64062,-1.92188 -1.07813,-0.6875 -2.42188,-0.6875 -1.90625,0 -3.28125,1.3125 -1.375,1.3125 -1.375,4.39063 z m 13.19892,6.59375 0,-13.59375 4.6875,0 q 1.57812,0 2.42187,0.1875 1.15625,0.26562 1.98438,0.96875 1.07812,0.92187 1.60937,2.34375 0.53125,1.40625 0.53125,3.21875 0,1.54687 -0.35937,2.75 -0.35938,1.1875 -0.92188,1.98437 -0.5625,0.78125 -1.23437,1.23438 -0.67188,0.4375 -1.625,0.67187 -0.95313,0.23438 -2.1875,0.23438 l -4.90625,0 z m 1.79687,-1.60938 2.90625,0 q 1.34375,0 2.10938,-0.25 0.76562,-0.25 1.21875,-0.70312 0.64062,-0.64063 1,-1.71875 0.35937,-1.07813 0.35937,-2.625 0,-2.125 -0.70312,-3.26563 -0.70313,-1.15625 -1.70313,-1.54687 -0.71875,-0.28125 -2.32812,-0.28125 l -2.85938,0 0,10.39062 z m 11.67609,1.60938 0,-13.59375 4.6875,0 q 1.57812,0 2.42187,0.1875 1.15625,0.26562 1.98438,0.96875 1.07812,0.92187 1.60937,2.34375 0.53125,1.40625 0.53125,3.21875 0,1.54687 -0.35937,2.75 -0.35938,1.1875 -0.92188,1.98437 -0.5625,0.78125 -1.23437,1.23438 -0.67188,0.4375 -1.625,0.67187 -0.95313,0.23438 -2.1875,0.23438 l -4.90625,0 z m 1.79687,-1.60938 2.90625,0 q 1.34375,0 2.10938,-0.25 0.76562,-0.25 1.21875,-0.70312 0.64062,-0.64063 1,-1.71875 0.35937,-1.07813 0.35937,-2.625 0,-2.125 -0.70312,-3.26563 -0.70313,-1.15625 -1.70313,-1.54687 -0.71875,-0.28125 -2.32812,-0.28125 l -2.85938,0 0,10.39062 z m 23.07813,-2 1.64062,0.21875 q -0.26562,1.6875 -1.375,2.65625 -1.10937,0.95313 -2.73437,0.95313 -2.01563,0 -3.25,-1.3125 -1.21875,-1.32813 -1.21875,-3.79688 0,-1.59375 0.51562,-2.78125 0.53125,-1.20312 1.60938,-1.79687 1.09375,-0.60938 2.35937,-0.60938 1.60938,0 2.625,0.8125 1.01563,0.8125 1.3125,2.3125 l -1.625,0.25 q -0.23437,-1 -0.82812,-1.5 -0.59375,-0.5 -1.42188,-0.5 -1.26562,0 -2.0625,0.90625 -0.78125,0.90625 -0.78125,2.85938 0,1.98437 0.76563,2.89062 0.76562,0.89063 1.98437,0.89063 0.98438,0 1.64063,-0.59375 0.65625,-0.60938 0.84375,-1.85938 z m 2.26562,-1.3125 q 0,-2.73437 1.53125,-4.0625 1.26563,-1.09375 3.09375,-1.09375 2.03125,0 3.3125,1.34375 1.29688,1.32813 1.29688,3.67188 0,1.90625 -0.57813,3 -0.5625,1.07812 -1.65625,1.6875 -1.07812,0.59375 -2.375,0.59375 -2.0625,0 -3.34375,-1.32813 -1.28125,-1.32812 -1.28125,-3.8125 z m 1.71875,0 q 0,1.89063 0.82813,2.82813 0.82812,0.9375 2.07812,0.9375 1.25,0 2.0625,-0.9375 0.82813,-0.95313 0.82813,-2.89063 0,-1.82812 -0.82813,-2.76562 -0.82812,-0.9375 -2.0625,-0.9375 -1.25,0 -2.07812,0.9375 -0.82813,0.9375 -0.82813,2.82812 z m 9.2663,4.92188 0,-9.85938 1.5,0 0,1.5 q 0.57812,-1.04687 1.0625,-1.375 0.48437,-0.34375 1.07812,-0.34375 0.84375,0 1.71875,0.54688 l -0.57812,1.54687 q -0.60938,-0.35937 -1.23438,-0.35937 -0.54687,0 -0.98437,0.32812 -0.42188,0.32813 -0.60938,0.90625 -0.28125,0.89063 -0.28125,1.95313 l 0,5.15625 -1.67187,0 z m 12.97833,-3.17188 1.71875,0.21875 q -0.40625,1.5 -1.51562,2.34375 -1.09375,0.82813 -2.8125,0.82813 -2.15625,0 -3.42188,-1.32813 -1.26562,-1.32812 -1.26562,-3.73437 0,-2.48438 1.26562,-3.85938 1.28125,-1.375 3.32813,-1.375 1.98437,0 3.23437,1.34375 1.25,1.34375 1.25,3.79688 0,0.14062 -0.0156,0.4375 l -7.34375,0 q 0.0937,1.625 0.92187,2.48437 0.82813,0.85938 2.0625,0.85938 0.90625,0 1.54688,-0.46875 0.65625,-0.48438 1.04687,-1.54688 z m -5.48437,-2.70312 5.5,0 q -0.10938,-1.23438 -0.625,-1.85938 -0.79688,-0.96875 -2.07813,-0.96875 -1.14062,0 -1.9375,0.78125 -0.78125,0.76563 -0.85937,2.04688 z m 13.66839,0.95312 q 0,-2.73437 1.53125,-4.0625 1.26563,-1.09375 3.09375,-1.09375 2.03125,0 3.3125,1.34375 1.29688,1.32813 1.29688,3.67188 0,1.90625 -0.57813,3 -0.5625,1.07812 -1.65625,1.6875 -1.07812,0.59375 -2.375,0.59375 -2.0625,0 -3.34375,-1.32813 -1.28125,-1.32812 -1.28125,-3.8125 z m 1.71875,0 q 0,1.89063 0.82813,2.82813 0.82812,0.9375 2.07812,0.9375 1.25,0 2.0625,-0.9375 0.82813,-0.95313 0.82813,-2.89063 0,-1.82812 -0.82813,-2.76562 -0.82812,-0.9375 -2.0625,-0.9375 -1.25,0 -2.07812,0.9375 -0.82813,0.9375 -0.82813,2.82812 z m 9.28192,4.92188 0,-9.85938 1.5,0 0,1.40625 q 1.09375,-1.625 3.14063,-1.625 0.89062,0 1.64062,0.32813 0.75,0.3125 1.10938,0.84375 0.375,0.51562 0.53125,1.21875 0.0937,0.46875 0.0937,1.625 l 0,6.0625 -1.67188,0 0,-6 q 0,-1.01563 -0.20312,-1.51563 -0.1875,-0.51562 -0.6875,-0.8125 -0.5,-0.29687 -1.17188,-0.29687 -1.0625,0 -1.84375,0.67187 -0.76562,0.67188 -0.76562,2.57813 l 0,5.375 -1.67188,0 z m 14.03199,-1.5 0.23437,1.48437 q -0.70312,0.14063 -1.26562,0.14063 -0.90625,0 -1.40625,-0.28125 -0.5,-0.29688 -0.70313,-0.75 -0.20312,-0.46875 -0.20312,-1.98438 l 0,-5.65625 -1.23438,0 0,-1.3125 1.23438,0 0,-2.4375 1.65625,-1 0,3.4375 1.6875,0 0,1.3125 -1.6875,0 0,5.75 q 0,0.71875 0.0781,0.92188 0.0937,0.20312 0.29688,0.32812 0.20312,0.125 0.57812,0.125 0.26563,0 0.73438,-0.0781 z m 0.9021,-3.42188 q 0,-2.73437 1.53125,-4.0625 1.26562,-1.09375 3.09375,-1.09375 2.03125,0 3.3125,1.34375 1.29687,1.32813 1.29687,3.67188 0,1.90625 -0.57812,3 -0.5625,1.07812 -1.65625,1.6875 -1.07813,0.59375 -2.375,0.59375 -2.0625,0 -3.34375,-1.32813 -1.28125,-1.32812 -1.28125,-3.8125 z m 1.71875,0 q 0,1.89063 0.82812,2.82813 0.82813,0.9375 2.07813,0.9375 1.25,0 2.0625,-0.9375 0.82812,-0.95313 0.82812,-2.89063 0,-1.82812 -0.82812,-2.76562 -0.82813,-0.9375 -2.0625,-0.9375 -1.25,0 -2.07813,0.9375 -0.82812,0.9375 -0.82812,2.82812 z m 9.25067,4.92188 0,-13.59375 1.67187,0 0,13.59375 -1.67187,0 z m 3.55108,-4.92188 q 0,-2.73437 1.53125,-4.0625 1.26563,-1.09375 3.09375,-1.09375 2.03125,0 3.3125,1.34375 1.29688,1.32813 1.29688,3.67188 0,1.90625 -0.57813,3 -0.5625,1.07812 -1.65625,1.6875 -1.07812,0.59375 -2.375,0.59375 -2.0625,0 -3.34375,-1.32813 -1.28125,-1.32812 -1.28125,-3.8125 z m 1.71875,0 q 0,1.89063 0.82813,2.82813 0.82812,0.9375 2.07812,0.9375 1.25,0 2.0625,-0.9375 0.82813,-0.95313 0.82813,-2.89063 0,-1.82812 -0.82813,-2.76562 -0.82812,-0.9375 -2.0625,-0.9375 -1.25,0 -2.07812,0.9375 -0.82813,0.9375 -0.82813,2.82812 z m 8.98511,5.73438 1.60938,0.25 q 0.10937,0.75 0.57812,1.09375 0.60938,0.45312 1.6875,0.45312 1.17188,0 1.79688,-0.46875 0.625,-0.45312 0.85937,-1.28125 0.125,-0.51562 0.10938,-2.15625 -1.09375,1.29688 -2.71875,1.29688 -2.03125,0 -3.15625,-1.46875 -1.10938,-1.46875 -1.10938,-3.51563 0,-1.40625 0.51563,-2.59375 0.51562,-1.20312 1.48437,-1.84375 0.96875,-0.65625 2.26563,-0.65625 1.75,0 2.875,1.40625 l 0,-1.1875 1.54687,0 0,8.51563 q 0,2.3125 -0.46875,3.26562 -0.46875,0.96875 -1.48437,1.51563 -1.01563,0.5625 -2.5,0.5625 -1.76563,0 -2.85938,-0.79688 -1.07812,-0.79687 -1.03125,-2.39062 z m 1.375,-5.92188 q 0,1.95313 0.76563,2.84375 0.78125,0.89063 1.9375,0.89063 1.14062,0 1.92187,-0.89063 0.78125,-0.89062 0.78125,-2.78125 0,-1.8125 -0.8125,-2.71875 -0.79687,-0.92187 -1.92187,-0.92187 -1.10938,0 -1.89063,0.90625 -0.78125,0.89062 -0.78125,2.67187 z m 9.31323,-6.57812 0,-1.90625 1.67188,0 0,1.90625 -1.67188,0 z m 0,11.6875 0,-9.85938 1.67188,0 0,9.85938 -1.67188,0 z m 10.87915,-3.17188 1.71875,0.21875 q -0.40625,1.5 -1.51562,2.34375 -1.09375,0.82813 -2.8125,0.82813 -2.15625,0 -3.42188,-1.32813 -1.26562,-1.32812 -1.26562,-3.73437 0,-2.48438 1.26562,-3.85938 1.28125,-1.375 3.32813,-1.375 1.98437,0 3.23437,1.34375 1.25,1.34375 1.25,3.79688 0,0.14062 -0.0156,0.4375 l -7.34375,0 q 0.0937,1.625 0.92187,2.48437 0.82813,0.85938 2.0625,0.85938 0.90625,0 1.54688,-0.46875 0.65625,-0.48438 1.04687,-1.54688 z m -5.48437,-2.70312 5.5,0 q -0.10938,-1.23438 -0.625,-1.85938 -0.79688,-0.96875 -2.07813,-0.96875 -1.14062,0 -1.9375,0.78125 -0.78125,0.76563 -0.85937,2.04688 z m 8.43823,2.9375 1.65625,-0.26563 q 0.14062,1 0.76562,1.53125 0.64063,0.51563 1.78125,0.51563 1.15625,0 1.70313,-0.46875 0.5625,-0.46875 0.5625,-1.09375 0,-0.5625 -0.48438,-0.89063 -0.34375,-0.21875 -1.70312,-0.5625 -1.84375,-0.46875 -2.5625,-0.79687 -0.70313,-0.34375 -1.07813,-0.9375 -0.35937,-0.60938 -0.35937,-1.32813 0,-0.65625 0.29687,-1.21875 0.3125,-0.5625 0.82813,-0.9375 0.39062,-0.28125 1.0625,-0.48437 0.67187,-0.20313 1.4375,-0.20313 1.17187,0 2.04687,0.34375 0.875,0.32813 1.28125,0.90625 0.42188,0.5625 0.57813,1.51563 l -1.625,0.21875 q -0.10938,-0.75 -0.65625,-1.17188 -0.53125,-0.4375 -1.5,-0.4375 -1.15625,0 -1.64063,0.39063 -0.48437,0.375 -0.48437,0.875 0,0.32812 0.20312,0.59375 0.20313,0.26562 0.64063,0.4375 0.25,0.0937 1.46875,0.4375 1.76562,0.46875 2.46875,0.76562 0.70312,0.29688 1.09375,0.875 0.40625,0.57813 0.40625,1.4375 0,0.82813 -0.48438,1.57813 -0.48437,0.73437 -1.40625,1.14062 -0.92187,0.39063 -2.07812,0.39063 -1.92188,0 -2.9375,-0.79688 -1,-0.79687 -1.28125,-2.35937 z"
       id="path61"
       inkscape:connector-curvature="0"
       style="fill:#000000;fill-rule:nonzero" />
    <path
       d="m 607.5,80 104.50397,0 0,40 L 607.5,120 z"
       id="path63"
       inkscape:connector-curvature="0"
       style="fill:#d9d9d9;fill-rule:nonzero" />
    <path
       d="m 607.5,80 104.50397,0 0,40 L 607.5,120 z"
       id="path65"
       inkscape:connector-curvature="0"
       style="stroke:#0000ff;stroke-width:2;stroke-linecap:butt;stroke-linejoin:round" />
    <path
       d="m 618.74414,105.28125 0,-11.453125 3.95313,0 q 1.32812,0 2.03125,0.15625 0.98437,0.234375 1.6875,0.828125 0.90625,0.765625 1.34375,1.953125 0.45312,1.1875 0.45312,2.71875 0,1.312505 -0.3125,2.328125 -0.29687,1 -0.78125,1.65625 -0.46875,0.65625 -1.03125,1.04688 -0.5625,0.375 -1.375,0.57812 -0.79687,0.1875 -1.82812,0.1875 l -4.14063,0 z m 1.51563,-1.35937 2.45312,0 q 1.125,0 1.76563,-0.20313 0.65625,-0.21875 1.03125,-0.59375 0.54687,-0.54687 0.84375,-1.45312 0.29687,-0.90625 0.29687,-2.20313 0,-1.796875 -0.59375,-2.765625 -0.57812,-0.96875 -1.42187,-1.296875 -0.60938,-0.234375 -1.96875,-0.234375 l -2.40625,0 0,8.750005 z m 15.30468,1.35937 0,-1.21875 q -0.96875,1.40625 -2.64062,1.40625 -0.73438,0 -1.375,-0.28125 -0.625,-0.28125 -0.9375,-0.70312 -0.3125,-0.4375 -0.4375,-1.04688 -0.0781,-0.42187 -0.0781,-1.3125 l 0,-5.140625 1.40625,0 0,4.593755 q 0,1.10937 0.0781,1.48437 0.14062,0.5625 0.5625,0.875 0.4375,0.3125 1.0625,0.3125 0.64062,0 1.1875,-0.3125 0.5625,-0.32812 0.78125,-0.89062 0.23437,-0.5625 0.23437,-1.625 l 0,-4.437505 1.40625,0 0,8.296875 -1.25,0 z m 4.75782,0 -1.3125,0 0,-11.453125 1.40625,0 0,4.078125 q 0.89062,-1.109375 2.28125,-1.109375 0.76562,0 1.4375,0.3125 0.6875,0.296875 1.125,0.859375 0.45312,0.5625 0.70312,1.359375 0.25,0.781255 0.25,1.671875 0,2.14063 -1.0625,3.3125 -1.04687,1.15625 -2.53125,1.15625 -1.46875,0 -2.29687,-1.23437 l 0,1.04687 z m -0.0156,-4.21875 q 0,1.5 0.40625,2.15625 0.65625,1.09375 1.79688,1.09375 0.92187,0 1.59375,-0.79687 0.67187,-0.8125 0.67187,-2.39063 0,-1.625 -0.65625,-2.390625 -0.64062,-0.78125 -1.54687,-0.78125 -0.92188,0 -1.59375,0.796875 -0.67188,0.796875 -0.67188,2.3125 z m 7.58594,4.21875 0,-11.453125 1.40625,0 0,11.453125 -1.40625,0 z m 3.58594,-9.84375 0,-1.609375 1.40625,0 0,1.609375 -1.40625,0 z m 0,9.84375 0,-8.296875 1.40625,0 0,8.296875 -1.40625,0 z m 3.55468,0 0,-8.296875 1.26563,0 0,1.171875 q 0.90625,-1.359375 2.64062,-1.359375 0.75,0 1.375,0.265625 0.625,0.265625 0.9375,0.703125 0.3125,0.4375 0.4375,1.046875 0.0781,0.390625 0.0781,1.35938 l 0,5.10937 -1.40625,0 0,-5.04687 q 0,-0.85938 -0.17188,-1.281255 -0.15625,-0.4375 -0.57812,-0.6875 -0.40625,-0.25 -0.96875,-0.25 -0.90625,0 -1.5625,0.578125 -0.64063,0.5625 -0.64063,2.15625 l 0,4.53125 -1.40625,0 z m 21.6875,-4.01562 1.51563,0.375 q -0.46875,1.875 -1.71875,2.85937 -1.23438,0.98438 -3.01563,0.98438 -1.85937,0 -3.01562,-0.75 -1.15625,-0.76563 -1.76563,-2.1875 -0.60937,-1.4375 -0.60937,-3.07813 0,-1.796875 0.6875,-3.125 0.6875,-1.328125 1.9375,-2.015625 1.26562,-0.703125 2.78125,-0.703125 1.71875,0 2.89062,0.875 1.17188,0.875 1.64063,2.46875 l -1.5,0.34375 q -0.39063,-1.25 -1.15625,-1.8125 -0.75,-0.578125 -1.90625,-0.578125 -1.3125,0 -2.20313,0.640625 -0.89062,0.625 -1.25,1.703125 -0.35937,1.0625 -0.35937,2.1875 0,1.468755 0.42187,2.562505 0.4375,1.07812 1.32813,1.625 0.90625,0.53125 1.95312,0.53125 1.26563,0 2.14063,-0.73438 0.89062,-0.73437 1.20312,-2.17187 z m 2.67969,-0.14063 q 0,-2.296875 1.28125,-3.40625 1.07813,-0.921875 2.60938,-0.921875 1.71875,0 2.79687,1.125 1.09375,1.109375 1.09375,3.093755 0,1.59375 -0.48437,2.51562 -0.48438,0.92188 -1.40625,1.4375 -0.90625,0.5 -2,0.5 -1.73438,0 -2.8125,-1.10937 -1.07813,-1.125 -1.07813,-3.23438 z m 1.45313,0 q 0,1.59375 0.6875,2.39063 0.70312,0.79687 1.75,0.79687 1.04687,0 1.73437,-0.79687 0.70313,-0.79688 0.70313,-2.4375 0,-1.531255 -0.70313,-2.32813 -0.6875,-0.796875 -1.73437,-0.796875 -1.04688,0 -1.75,0.796875 -0.6875,0.78125 -0.6875,2.375 z m 7.96093,4.15625 0,-8.296875 1.26563,0 0,1.25 q 0.48437,-0.875 0.89062,-1.15625 0.40625,-0.28125 0.90625,-0.28125 0.70313,0 1.4375,0.453125 l -0.48437,1.296875 Q 692.31445,98.25 691.79883,98.25 q -0.45313,0 -0.82813,0.28125 -0.35937,0.265625 -0.51562,0.765625 -0.23438,0.750005 -0.23438,1.640625 l 0,4.34375 -1.40625,0 z m 11.01563,-2.67187 1.45312,0.17187 q -0.34375,1.28125 -1.28125,1.98438 -0.92187,0.70312 -2.35937,0.70312 -1.82813,0 -2.89063,-1.125 -1.0625,-1.125 -1.0625,-3.14062 0,-2.093755 1.07813,-3.250005 1.07812,-1.15625 2.79687,-1.15625 1.65625,0 2.70313,1.140625 1.0625,1.125 1.0625,3.17188 0,0.125 0,0.375 l -6.1875,0 q 0.0781,1.375 0.76562,2.10937 0.70313,0.71875 1.73438,0.71875 0.78125,0 1.32812,-0.40625 0.54688,-0.40625 0.85938,-1.29687 z m -4.60938,-2.28125 4.625,0 q -0.0937,-1.04688 -0.53125,-1.562505 -0.67187,-0.8125 -1.73437,-0.8125 -0.96875,0 -1.64063,0.65625 -0.65625,0.640625 -0.71875,1.718755 z"
       id="path67"
       inkscape:connector-curvature="0"
       style="fill:#000000;fill-rule:nonzero" />
    <path
       d="M 399.49606,80 528,80 l 0,40 -128.50394,0 z"
       id="path69"
       inkscape:connector-curvature="0"
       style="fill:#d9d9d9;fill-rule:nonzero" />
    <path
       d="M 399.49606,80 528,80 l 0,40 -128.50394,0 z"
       id="path71"
       inkscape:connector-curvature="0"
       style="stroke:#0000ff;stroke-width:2;stroke-linecap:butt;stroke-linejoin:round" />
    <path
       d="m 412.50583,105.28125 0,-11.453125 4.32812,0 q 1.14063,0 1.73438,0.109375 0.84375,0.140625 1.40625,0.53125 0.57812,0.390625 0.92187,1.109375 0.35938,0.703125 0.35938,1.5625 0,1.453125 -0.9375,2.46875 -0.92188,1.015625 -3.35938,1.015625 l -2.9375,0 0,4.65625 -1.51562,0 z m 1.51562,-6.015625 2.96875,0 q 1.46875,0 2.07813,-0.546875 0.625,-0.546875 0.625,-1.53125 0,-0.71875 -0.375,-1.234375 -0.35938,-0.515625 -0.95313,-0.671875 -0.375,-0.109375 -1.40625,-0.109375 l -2.9375,0 0,4.09375 z m 8.95313,6.015625 0,-11.453125 1.40625,0 0,11.453125 -1.40625,0 z m 8.99219,-1.03125 q -0.78125,0.67188 -1.5,0.95313 -0.71875,0.26562 -1.54688,0.26562 -1.375,0 -2.10937,-0.67187 -0.73438,-0.67188 -0.73438,-1.70313 0,-0.60937 0.28125,-1.10937 0.28125,-0.51563 0.71875,-0.8125 0.45313,-0.3125 1.01563,-0.46875 0.42187,-0.10938 1.25,-0.20313 1.70312,-0.20312 2.51562,-0.48437 0,-0.29688 0,-0.375005 0,-0.859375 -0.39062,-1.203125 -0.54688,-0.484375 -1.60938,-0.484375 -0.98437,0 -1.46875,0.359375 -0.46875,0.34375 -0.6875,1.21875 l -1.375,-0.1875 q 0.1875,-0.875 0.60938,-1.421875 0.4375,-0.546875 1.25,-0.828125 0.8125,-0.296875 1.875,-0.296875 1.0625,0 1.71875,0.25 0.67187,0.25 0.98437,0.625 0.3125,0.375 0.4375,0.953125 0.0781,0.359375 0.0781,1.296875 l 0,1.875005 q 0,1.96875 0.0781,2.48437 0.0937,0.51563 0.35938,1 l -1.46875,0 q -0.21875,-0.4375 -0.28125,-1.03125 z m -0.10938,-3.14062 q -0.76562,0.3125 -2.29687,0.53125 -0.875,0.125 -1.23438,0.28125 -0.35937,0.15625 -0.5625,0.46875 -0.1875,0.29687 -0.1875,0.65625 0,0.5625 0.42188,0.9375 0.4375,0.375 1.25,0.375 0.8125,0 1.4375,-0.34375 0.64062,-0.35938 0.9375,-0.98438 0.23437,-0.46875 0.23437,-1.40625 l 0,-0.51562 z m 3.60156,4.17187 0,-8.296875 1.26563,0 0,1.171875 q 0.90625,-1.359375 2.64062,-1.359375 0.75,0 1.375,0.265625 0.625,0.265625 0.9375,0.703125 0.3125,0.4375 0.4375,1.046875 0.0781,0.390625 0.0781,1.35938 l 0,5.10937 -1.40625,0 0,-5.04687 q 0,-0.85938 -0.17188,-1.281255 -0.15625,-0.4375 -0.57812,-0.6875 -0.40625,-0.25 -0.96875,-0.25 -0.90625,0 -1.5625,0.578125 -0.64063,0.5625 -0.64063,2.15625 l 0,4.53125 -1.40625,0 z m 11.96094,-1.26562 0.20313,1.25 q -0.59375,0.125 -1.0625,0.125 -0.76563,0 -1.1875,-0.23438 -0.42188,-0.25 -0.59375,-0.64062 -0.17188,-0.40625 -0.17188,-1.67188 l 0,-4.765625 -1.03125,0 0,-1.09375 1.03125,0 0,-2.0625 1.40625,-0.84375 0,2.90625 1.40625,0 0,1.09375 -1.40625,0 0,4.843755 q 0,0.60937 0.0625,0.78125 0.0781,0.17187 0.25,0.28125 0.17188,0.0937 0.48438,0.0937 0.23437,0 0.60937,-0.0625 z m 5.54688,-4.312505 q 0,-2.859375 1.53125,-4.46875 1.53125,-1.609375 3.95312,-1.609375 1.57813,0 2.84375,0.765625 1.28125,0.75 1.95313,2.109375 0.67187,1.34375 0.67187,3.0625 0,1.75 -0.70312,3.125 -0.70313,1.375 -2,2.09375 -1.28125,0.70313 -2.78125,0.70313 -1.60938,0 -2.89063,-0.78125 -1.26562,-0.79688 -1.92187,-2.14063 -0.65625,-1.35937 -0.65625,-2.859375 z m 1.5625,0.01563 q 0,2.078135 1.10937,3.265635 1.10938,1.1875 2.79688,1.1875 1.70312,0 2.8125,-1.20313 1.10937,-1.20312 1.10937,-3.406255 0,-1.40625 -0.48437,-2.4375 -0.46875,-1.046875 -1.375,-1.625 -0.90625,-0.578125 -2.04688,-0.578125 -1.60937,0 -2.76562,1.109375 -1.15625,1.109375 -1.15625,3.6875 z m 11.16406,5.562505 0,-8.29688 1.26562,0 0,1.171875 q 0.90625,-1.359375 2.64063,-1.359375 0.75,0 1.375,0.265625 0.625,0.265625 0.9375,0.703125 0.3125,0.4375 0.4375,1.046875 0.0781,0.390625 0.0781,1.359385 l 0,5.10937 -1.40625,0 0,-5.04687 q 0,-0.859385 -0.17187,-1.28126 -0.15625,-0.4375 -0.57813,-0.6875 -0.40625,-0.25 -0.96875,-0.25 -0.90625,0 -1.5625,0.578125 -0.64062,0.5625 -0.64062,2.156255 l 0,4.53125 -1.40625,0 z m 11.96094,-1.26562 0.20312,1.25 q -0.59375,0.125 -1.0625,0.125 -0.76562,0 -1.1875,-0.23438 -0.42187,-0.25 -0.59375,-0.64062 -0.17187,-0.40625 -0.17187,-1.67188 l 0,-4.76563 -1.03125,0 0,-1.09375 1.03125,0 0,-2.0625 1.40625,-0.84375 0,2.90625 1.40625,0 0,1.09375 -1.40625,0 0,4.84376 q 0,0.60937 0.0625,0.78125 0.0781,0.17187 0.25,0.28125 0.17187,0.0937 0.48437,0.0937 0.23438,0 0.60938,-0.0625 z m 0.85156,-2.89063 q 0,-2.29688 1.28125,-3.406255 1.07812,-0.921875 2.60937,-0.921875 1.71875,0 2.79688,1.125 1.09375,1.109375 1.09375,3.09376 0,1.59375 -0.48438,2.51562 -0.48437,0.92188 -1.40625,1.4375 -0.90625,0.5 -2,0.5 -1.73437,0 -2.8125,-1.10937 -1.07812,-1.125 -1.07812,-3.23438 z m 1.45312,0 q 0,1.59375 0.6875,2.39063 0.70313,0.79687 1.75,0.79687 1.04688,0 1.73438,-0.79687 0.70312,-0.79688 0.70312,-2.4375 0,-1.53126 -0.70312,-2.328135 -0.6875,-0.796875 -1.73438,-0.796875 -1.04687,0 -1.75,0.796875 -0.6875,0.78125 -0.6875,2.375005 z m 7.94532,4.15625 0,-11.45313 1.40625,0 0,11.45313 -1.40625,0 z m 3.05468,-4.15625 q 0,-2.29688 1.28125,-3.406255 1.07813,-0.921875 2.60938,-0.921875 1.71875,0 2.79687,1.125 1.09375,1.109375 1.09375,3.09376 0,1.59375 -0.48437,2.51562 -0.48438,0.92188 -1.40625,1.4375 -0.90625,0.5 -2,0.5 -1.73438,0 -2.8125,-1.10937 -1.07813,-1.125 -1.07813,-3.23438 z m 1.45313,0 q 0,1.59375 0.6875,2.39063 0.70312,0.79687 1.75,0.79687 1.04687,0 1.73437,-0.79687 0.70313,-0.79688 0.70313,-2.4375 0,-1.53126 -0.70313,-2.328135 -0.6875,-0.796875 -1.73437,-0.796875 -1.04688,0 -1.75,0.796875 -0.6875,0.78125 -0.6875,2.375005 z m 7.71094,4.84375 1.375,0.20313 q 0.0781,0.64062 0.46875,0.92187 0.53125,0.39063 1.4375,0.39063 0.96875,0 1.5,-0.39063 0.53125,-0.39062 0.71875,-1.09375 0.10937,-0.42187 0.10937,-1.8125 -0.92187,1.09375 -2.29687,1.09375 -1.71875,0 -2.65625,-1.23437 -0.9375,-1.23438 -0.9375,-2.96875 0,-1.18751 0.42187,-2.18751 0.4375,-1 1.25,-1.546875 0.82813,-0.546875 1.92188,-0.546875 1.46875,0 2.42187,1.1875 l 0,-1 1.29688,0 0,7.17188 q 0,1.9375 -0.39063,2.75 -0.39062,0.8125 -1.25,1.28125 -0.85937,0.46875 -2.10937,0.46875 -1.48438,0 -2.40625,-0.67187 -0.90625,-0.67188 -0.875,-2.01563 z m 1.17187,-4.98437 q 0,1.625 0.64063,2.375 0.65625,0.75 1.625,0.75 0.96875,0 1.625,-0.73438 0.65625,-0.75 0.65625,-2.34375 0,-1.531255 -0.67188,-2.29688 -0.67187,-0.78125 -1.625,-0.78125 -0.9375,0 -1.59375,0.765625 -0.65625,0.765625 -0.65625,2.265635 z m 7.92969,7.5 -0.15625,-1.32813 q 0.45312,0.125 0.79687,0.125 0.46875,0 0.75,-0.15625 0.28125,-0.15625 0.46875,-0.4375 0.125,-0.20312 0.42188,-1.04687 0.0469,-0.10938 0.125,-0.34375 l -3.14063,-8.31251 1.51563,0 1.71875,4.79688 q 0.34378,0.92188 0.60941,1.92188 0.23437,-0.96875 0.57812,-1.89063 l 1.76563,-4.82813 1.40625,0 -3.15625,8.43751 q -0.5,1.375 -0.78125,1.89062 -0.37504,0.6875 -0.85941,1.01563 -0.48437,0.32812 -1.15625,0.32812 -0.40625,0 -0.90625,-0.17187 z"
       id="path73"
       inkscape:connector-curvature="0"
       style="fill:#000000;fill-rule:nonzero" />
    <path
       d="m 263.5,80 128.50394,0 0,40 L 263.5,120 z"
       id="path75"
       inkscape:connector-curvature="0"
       style="fill:#d9d9d9;fill-rule:nonzero" />
    <path
       d="m 263.5,80 128.50394,0 0,40 L 263.5,120 z"
       id="path77"
       inkscape:connector-curvature="0"
       style="stroke:#0000ff;stroke-width:2;stroke-linecap:butt;stroke-linejoin:round" />
    <path
       d="m 280.5332,100.78125 0,-1.34375 4.85938,0 0,4.25 q -1.125,0.89063 -2.3125,1.34375 -1.1875,0.45313 -2.4375,0.45313 -1.6875,0 -3.0625,-0.71875 -1.375,-0.73438 -2.07813,-2.09375 -0.70312,-1.375 -0.70312,-3.062505 0,-1.671875 0.6875,-3.125 0.70312,-1.453125 2.01562,-2.15625 1.3125,-0.703125 3.03125,-0.703125 1.23438,0 2.23438,0.40625 1.01562,0.40625 1.57812,1.125 0.57813,0.71875 0.875,1.875 l -1.375,0.375 q -0.25,-0.875 -0.64062,-1.375 -0.375,-0.5 -1.09375,-0.796875 -0.70313,-0.3125 -1.57813,-0.3125 -1.03125,0 -1.79687,0.328125 -0.75,0.3125 -1.21875,0.828125 -0.46875,0.515625 -0.71875,1.125 -0.4375,1.0625 -0.4375,2.3125 0,1.531255 0.51562,2.562505 0.53125,1.03125 1.53125,1.53125 1.01563,0.5 2.15625,0.5 0.98438,0 1.92188,-0.375 0.9375,-0.39063 1.42187,-0.8125 l 0,-2.14063 -3.375,0 z m 12.58594,1.82813 1.45312,0.17187 q -0.34375,1.28125 -1.28125,1.98438 -0.92187,0.70312 -2.35937,0.70312 -1.82813,0 -2.89063,-1.125 -1.0625,-1.125 -1.0625,-3.14062 0,-2.093755 1.07813,-3.250005 1.07812,-1.15625 2.79687,-1.15625 1.65625,0 2.70313,1.140625 1.0625,1.125 1.0625,3.17188 0,0.125 0,0.375 l -6.1875,0 q 0.0781,1.375 0.76562,2.10937 0.70313,0.71875 1.73438,0.71875 0.78125,0 1.32812,-0.40625 0.54688,-0.40625 0.85938,-1.29687 z m -4.60938,-2.28125 4.625,0 q -0.0937,-1.04688 -0.53125,-1.562505 -0.67187,-0.8125 -1.73437,-0.8125 -0.96875,0 -1.64063,0.65625 -0.65625,0.640625 -0.71875,1.718755 z m 7.83594,4.95312 0,-8.296875 1.26563,0 0,1.171875 q 0.90625,-1.359375 2.64062,-1.359375 0.75,0 1.375,0.265625 0.625,0.265625 0.9375,0.703125 0.3125,0.4375 0.4375,1.046875 0.0781,0.390625 0.0781,1.35938 l 0,5.10937 -1.40625,0 0,-5.04687 q 0,-0.85938 -0.17188,-1.281255 -0.15625,-0.4375 -0.57812,-0.6875 -0.40625,-0.25 -0.96875,-0.25 -0.90625,0 -1.5625,0.578125 -0.64063,0.5625 -0.64063,2.15625 l 0,4.53125 -1.40625,0 z m 14.57031,-2.67187 1.45313,0.17187 q -0.34375,1.28125 -1.28125,1.98438 -0.92188,0.70312 -2.35938,0.70312 -1.82812,0 -2.89062,-1.125 -1.0625,-1.125 -1.0625,-3.14062 0,-2.093755 1.07812,-3.250005 1.07813,-1.15625 2.79688,-1.15625 1.65625,0 2.70312,1.140625 1.0625,1.125 1.0625,3.17188 0,0.125 0,0.375 l -6.1875,0 q 0.0781,1.375 0.76563,2.10937 0.70312,0.71875 1.73437,0.71875 0.78125,0 1.32813,-0.40625 0.54687,-0.40625 0.85937,-1.29687 z m -4.60937,-2.28125 4.625,0 q -0.0937,-1.04688 -0.53125,-1.562505 -0.67188,-0.8125 -1.73438,-0.8125 -0.96875,0 -1.64062,0.65625 -0.65625,0.640625 -0.71875,1.718755 z m 12,-0.625005 q 0,-2.859375 1.53125,-4.46875 1.53125,-1.609375 3.95312,-1.609375 1.57813,0 2.84375,0.765625 1.28125,0.75 1.95313,2.109375 0.67187,1.34375 0.67187,3.0625 0,1.75 -0.70312,3.125 -0.70313,1.375 -2,2.09375 -1.28125,0.70313 -2.78125,0.70313 -1.60938,0 -2.89063,-0.78125 -1.26562,-0.79688 -1.92187,-2.14063 -0.65625,-1.35937 -0.65625,-2.859375 z m 1.5625,0.01563 q 0,2.078135 1.10937,3.265635 1.10938,1.1875 2.79688,1.1875 1.70312,0 2.8125,-1.20313 1.10937,-1.20312 1.10937,-3.406255 0,-1.40625 -0.48437,-2.4375 -0.46875,-1.046875 -1.375,-1.625 -0.90625,-0.578125 -2.04688,-0.578125 -1.60937,0 -2.76562,1.109375 -1.15625,1.109375 -1.15625,3.6875 z m 11.16406,5.562505 0,-8.29688 1.26563,0 0,1.171875 q 0.90625,-1.359375 2.64062,-1.359375 0.75,0 1.375,0.265625 0.625,0.265625 0.9375,0.703125 0.3125,0.4375 0.4375,1.046875 0.0781,0.390625 0.0781,1.359385 l 0,5.10937 -1.40625,0 0,-5.04687 q 0,-0.859385 -0.17188,-1.28126 -0.15625,-0.4375 -0.57812,-0.6875 -0.40625,-0.25 -0.96875,-0.25 -0.90625,0 -1.5625,0.578125 -0.64063,0.5625 -0.64063,2.156255 l 0,4.53125 -1.40625,0 z m 11.96094,-1.26562 0.20312,1.25 q -0.59375,0.125 -1.0625,0.125 -0.76562,0 -1.1875,-0.23438 -0.42187,-0.25 -0.59375,-0.64062 -0.17187,-0.40625 -0.17187,-1.67188 l 0,-4.76563 -1.03125,0 0,-1.09375 1.03125,0 0,-2.0625 1.40625,-0.84375 0,2.90625 1.40625,0 0,1.09375 -1.40625,0 0,4.84376 q 0,0.60937 0.0625,0.78125 0.0781,0.17187 0.25,0.28125 0.17187,0.0937 0.48437,0.0937 0.23438,0 0.60938,-0.0625 z m 0.85156,-2.89063 q 0,-2.29688 1.28125,-3.406255 1.07813,-0.921875 2.60938,-0.921875 1.71875,0 2.79687,1.125 1.09375,1.109375 1.09375,3.09376 0,1.59375 -0.48437,2.51562 -0.48438,0.92188 -1.40625,1.4375 -0.90625,0.5 -2,0.5 -1.73438,0 -2.8125,-1.10937 -1.07813,-1.125 -1.07813,-3.23438 z m 1.45313,0 q 0,1.59375 0.6875,2.39063 0.70312,0.79687 1.75,0.79687 1.04687,0 1.73437,-0.79687 0.70313,-0.79688 0.70313,-2.4375 0,-1.53126 -0.70313,-2.328135 -0.6875,-0.796875 -1.73437,-0.796875 -1.04688,0 -1.75,0.796875 -0.6875,0.78125 -0.6875,2.375005 z m 7.94531,4.15625 0,-11.45313 1.40625,0 0,11.45313 -1.40625,0 z m 3.05469,-4.15625 q 0,-2.29688 1.28125,-3.406255 1.07812,-0.921875 2.60937,-0.921875 1.71875,0 2.79688,1.125 1.09375,1.109375 1.09375,3.09376 0,1.59375 -0.48438,2.51562 -0.48437,0.92188 -1.40625,1.4375 -0.90625,0.5 -2,0.5 -1.73437,0 -2.8125,-1.10937 -1.07812,-1.125 -1.07812,-3.23438 z m 1.45312,0 q 0,1.59375 0.6875,2.39063 0.70313,0.79687 1.75,0.79687 1.04688,0 1.73438,-0.79687 0.70312,-0.79688 0.70312,-2.4375 0,-1.53126 -0.70312,-2.328135 -0.6875,-0.796875 -1.73438,-0.796875 -1.04687,0 -1.75,0.796875 -0.6875,0.78125 -0.6875,2.375005 z m 7.71094,4.84375 1.375,0.20313 q 0.0781,0.64062 0.46875,0.92187 0.53125,0.39063 1.4375,0.39063 0.96875,0 1.5,-0.39063 0.53125,-0.39062 0.71875,-1.09375 0.10937,-0.42187 0.10937,-1.8125 -0.92187,1.09375 -2.29687,1.09375 -1.71875,0 -2.65625,-1.23437 -0.9375,-1.23438 -0.9375,-2.96875 0,-1.18751 0.42187,-2.18751 0.4375,-1 1.25,-1.546875 0.82813,-0.546875 1.92188,-0.546875 1.46875,0 2.42187,1.1875 l 0,-1 1.29688,0 0,7.17188 q 0,1.9375 -0.39063,2.75 -0.39062,0.8125 -1.25,1.28125 -0.85937,0.46875 -2.10937,0.46875 -1.48438,0 -2.40625,-0.67187 -0.90625,-0.67188 -0.875,-2.01563 z m 1.17187,-4.98437 q 0,1.625 0.64063,2.375 0.65625,0.75 1.625,0.75 0.96875,0 1.625,-0.73438 0.65625,-0.75 0.65625,-2.34375 0,-1.531255 -0.67188,-2.29688 -0.67187,-0.78125 -1.625,-0.78125 -0.9375,0 -1.59375,0.765625 -0.65625,0.765625 -0.65625,2.265635 z m 7.92969,7.5 -0.15625,-1.32813 q 0.45313,0.125 0.79688,0.125 0.46875,0 0.75,-0.15625 0.28125,-0.15625 0.46875,-0.4375 0.125,-0.20312 0.42187,-1.04687 0.0469,-0.10938 0.125,-0.34375 l -3.14062,-8.31251 1.51562,0 1.71875,4.79688 q 0.34375,0.92188 0.60938,1.92188 0.23437,-0.96875 0.57812,-1.89063 l 1.76563,-4.82813 1.40625,0 -3.15625,8.43751 q -0.5,1.375 -0.78125,1.89062 -0.375,0.6875 -0.85938,1.01563 -0.48437,0.32812 -1.15625,0.32812 -0.40625,0 -0.90625,-0.17187 z"
       id="path79"
       inkscape:connector-curvature="0"
       style="fill:#000000;fill-rule:nonzero" />
    <path
       d="M 368.00394,192 327.75196,120"
       id="path81"
       inkscape:connector-curvature="0"
       style="fill:#000000;fill-opacity:0;fill-rule:nonzero" />
    <path
       d="M 368.00394,192 333.60767,130.47429"
       id="path83"
       inkscape:connector-curvature="0"
       style="stroke:#000000;stroke-width:2;stroke-linecap:butt;stroke-linejoin:round;stroke-dasharray:8, 6" />
    <path
       d="m 336.49112,128.86227 -7.31241,-6.31021 1.5455,9.53424 z"
       id="path85"
       inkscape:connector-curvature="0"
       style="fill:#000000;fill-rule:evenodd;stroke:#000000;stroke-width:2;stroke-linecap:butt" />
    <path
       d="m 728.50397,144 0,0 c 11.04565,0 20,6.71555 20,14.9996 l 0,37.74883 c 0,8.28406 8.95428,14.9996 20,14.9996 l 0,0 c -11.04572,0 -20,6.71555 -20,14.9996 l 0,37.74883 c 0,8.28406 -8.95435,14.9996 -20,14.9996 z"
       id="path87"
       inkscape:connector-curvature="0"
       style="fill:#000000;fill-opacity:0;fill-rule:nonzero" />
    <path
       d="m 728.50397,144 0,0 c 11.04565,0 20,6.71555 20,14.9996 l 0,37.74883 c 0,8.28406 8.95428,14.9996 20,14.9996 l 0,0 c -11.04572,0 -20,6.71555 -20,14.9996 l 0,37.74883 c 0,8.28406 -8.95435,14.9996 -20,14.9996"
       id="path89"
       inkscape:connector-curvature="0"
       style="fill:#000000;fill-opacity:0;fill-rule:nonzero" />
    <path
       d="m 728.50397,144 0,0 c 11.04565,0 20,6.71555 20,14.9996 l 0,37.74883 c 0,8.28406 8.95428,14.9996 20,14.9996 l 0,0 c -11.04572,0 -20,6.71555 -20,14.9996 l 0,37.74883 c 0,8.28406 -8.95435,14.9996 -20,14.9996"
       id="path91"
       inkscape:connector-curvature="0"
       style="stroke:#000000;stroke-width:2;stroke-linecap:butt;stroke-linejoin:round" />
    <path
       d="m 728.50397,72.50394 0,0 c 11.04565,0 20,2.908356 20,6.496002 l 0,14.756027 0,0 c 0,3.587647 8.95428,6.496001 20,6.496001 l 0,0 c -11.04572,0 -20,2.90836 -20,6.496 l 0,14.75603 c 0,3.58765 -8.95435,6.496 -20,6.496 z"
       id="path93"
       inkscape:connector-curvature="0"
       style="fill:#000000;fill-opacity:0;fill-rule:nonzero" />
    <path
       d="m 728.50397,72.50394 0,0 c 11.04565,0 20,2.908356 20,6.496002 l 0,14.756027 0,0 c 0,3.587647 8.95428,6.496001 20,6.496001 l 0,0 c -11.04572,0 -20,2.90836 -20,6.496 l 0,14.75603 c 0,3.58765 -8.95435,6.496 -20,6.496"
       id="path95"
       inkscape:connector-curvature="0"
       style="fill:#000000;fill-opacity:0;fill-rule:nonzero" />
    <path
       d="m 728.50397,72.50394 0,0 c 11.04565,0 20,2.908356 20,6.496002 l 0,14.756027 0,0 c 0,3.587647 8.95428,6.496001 20,6.496001 l 0,0 c -11.04572,0 -20,2.90836 -20,6.496 l 0,14.75603 c 0,3.58765 -8.95435,6.496 -20,6.496"
       id="path97"
       inkscape:connector-curvature="0"
       style="stroke:#000000;stroke-width:2;stroke-linecap:butt;stroke-linejoin:round" />
    <path
       d="m 728.50397,288 0,0 c 10.90649,0 19.74799,4.47699 19.74799,9.9996 l 0,48.25275 c 0,5.52264 8.84149,9.99963 19.74804,9.99963 l 0,0 c -10.90655,0 -19.74804,4.47696 -19.74804,9.99961 l 0,48.25274 c 0,5.52262 -8.8415,9.99961 -19.74799,9.99961 z"
       id="path99"
       inkscape:connector-curvature="0"
       style="fill:#000000;fill-opacity:0;fill-rule:nonzero" />
    <path
       d="m 728.50397,288 0,0 c 10.90649,0 19.74799,4.47699 19.74799,9.9996 l 0,48.25275 c 0,5.52264 8.84149,9.99963 19.74804,9.99963 l 0,0 c -10.90655,0 -19.74804,4.47696 -19.74804,9.99961 l 0,48.25274 c 0,5.52262 -8.8415,9.99961 -19.74799,9.99961"
       id="path101"
       inkscape:connector-curvature="0"
       style="fill:#000000;fill-opacity:0;fill-rule:nonzero" />
    <path
       d="m 728.50397,288 0,0 c 10.90649,0 19.74799,4.47699 19.74799,9.9996 l 0,48.25275 c 0,5.52264 8.84149,9.99963 19.74804,9.99963 l 0,0 c -10.90655,0 -19.74804,4.47696 -19.74804,9.99961 l 0,48.25274 c 0,5.52262 -8.8415,9.99961 -19.74799,9.99961"
       id="path103"
       inkscape:connector-curvature="0"
       style="stroke:#000000;stroke-width:2;stroke-linecap:butt;stroke-linejoin:round" />
    <path
       d="M 776.50397,336 992,336 l 0,48.50394 -215.49603,0 z"
       id="path105"
       inkscape:connector-curvature="0"
       style="fill:#000000;fill-opacity:0;fill-rule:nonzero" />
    <path
       d="m 786.9727,355.68945 0,-13.59375 5.125,0 q 1.35938,0 2.07813,0.125 1,0.17188 1.67187,0.64063 0.67188,0.46875 1.07813,1.3125 0.42187,0.84375 0.42187,1.84375 0,1.73437 -1.10937,2.9375 -1.09375,1.20312 -3.98438,1.20312 l -3.48437,0 0,5.53125 -1.79688,0 z m 1.79688,-7.14062 3.51562,0 q 1.75,0 2.46875,-0.64063 0.73438,-0.65625 0.73438,-1.82812 0,-0.85938 -0.4375,-1.46875 -0.42188,-0.60938 -1.125,-0.79688 -0.45313,-0.125 -1.67188,-0.125 l -3.48437,0 0,4.85938 z m 10.09979,0.51562 q 0,-3.39062 1.8125,-5.29687 1.82812,-1.92188 4.70312,-1.92188 1.875,0 3.39063,0.90625 1.51562,0.89063 2.29687,2.5 0.79688,1.60938 0.79688,3.65625 0,2.0625 -0.84375,3.70313 -0.82813,1.625 -2.35938,2.46875 -1.53125,0.84375 -3.29687,0.84375 -1.92188,0 -3.4375,-0.92188 -1.5,-0.9375 -2.28125,-2.53125 -0.78125,-1.60937 -0.78125,-3.40625 z m 1.85937,0.0312 q 0,2.45313 1.3125,3.875 1.32813,1.40625 3.3125,1.40625 2.03125,0 3.34375,-1.42187 1.3125,-1.4375 1.3125,-4.0625 0,-1.65625 -0.5625,-2.89063 -0.54687,-1.23437 -1.64062,-1.92187 -1.07813,-0.6875 -2.42188,-0.6875 -1.90625,0 -3.28125,1.3125 -1.375,1.3125 -1.375,4.39062 z m 13.19892,6.59375 0,-13.59375 4.6875,0 q 1.57812,0 2.42187,0.1875 1.15625,0.26563 1.98438,0.96875 1.07812,0.92188 1.60937,2.34375 0.53125,1.40625 0.53125,3.21875 0,1.54688 -0.35937,2.75 -0.35938,1.1875 -0.92188,1.98438 -0.5625,0.78125 -1.23437,1.23437 -0.67188,0.4375 -1.625,0.67188 -0.95313,0.23437 -2.1875,0.23437 l -4.90625,0 z m 1.79687,-1.60937 2.90625,0 q 1.34375,0 2.10938,-0.25 0.76562,-0.25 1.21875,-0.70313 0.64062,-0.64062 1,-1.71875 0.35937,-1.07812 0.35937,-2.625 0,-2.125 -0.70312,-3.26562 -0.70313,-1.15625 -1.70313,-1.54688 -0.71875,-0.28125 -2.32812,-0.28125 l -2.85938,0 0,10.39063 z m 11.67609,1.60937 0,-13.59375 4.6875,0 q 1.57812,0 2.42187,0.1875 1.15625,0.26563 1.98438,0.96875 1.07812,0.92188 1.60937,2.34375 0.53125,1.40625 0.53125,3.21875 0,1.54688 -0.35937,2.75 -0.35938,1.1875 -0.92188,1.98438 -0.5625,0.78125 -1.23437,1.23437 -0.67188,0.4375 -1.625,0.67188 -0.95313,0.23437 -2.1875,0.23437 l -4.90625,0 z m 1.79687,-1.60937 2.90625,0 q 1.34375,0 2.10938,-0.25 0.76562,-0.25 1.21875,-0.70313 0.64062,-0.64062 1,-1.71875 0.35937,-1.07812 0.35937,-2.625 0,-2.125 -0.70312,-3.26562 -0.70313,-1.15625 -1.70313,-1.54688 -0.71875,-0.28125 -2.32812,-0.28125 l -2.85938,0 0,10.39063 z m 23.39063,-1.5625 1.71875,0.21875 q -0.40625,1.5 -1.51563,2.34375 -1.09375,0.82812 -2.8125,0.82812 -2.15625,0 -3.42187,-1.32812 -1.26563,-1.32813 -1.26563,-3.73438 0,-2.48437 1.26563,-3.85937 1.28125,-1.375 3.32812,-1.375 1.98438,0 3.23438,1.34375 1.25,1.34375 1.25,3.79687 0,0.14063 -0.0156,0.4375 l -7.34375,0 q 0.0937,1.625 0.92188,2.48438 0.82812,0.85937 2.0625,0.85937 0.90625,0 1.54687,-0.46875 0.65625,-0.48437 1.04688,-1.54687 z m -5.48438,-2.70313 5.5,0 q -0.10937,-1.23437 -0.625,-1.85937 -0.79687,-0.96875 -2.07812,-0.96875 -1.14063,0 -1.9375,0.78125 -0.78125,0.76562 -0.85938,2.04687 z m 8.00073,5.875 3.59375,-5.125 -3.32812,-4.73437 2.09375,0 1.51562,2.3125 q 0.42188,0.65625 0.67188,1.10937 0.42187,-0.60937 0.76562,-1.09375 l 1.65625,-2.32812 1.98438,0 -3.39063,4.64062 3.65625,5.21875 -2.04687,0 -2.03125,-3.0625 -0.53125,-0.82812 -2.59375,3.89062 -2.01563,0 z m 14.09375,-1.5 0.23438,1.48438 q -0.70313,0.14062 -1.26563,0.14062 -0.90625,0 -1.40625,-0.28125 -0.5,-0.29687 -0.70312,-0.75 -0.20313,-0.46875 -0.20313,-1.98437 l 0,-5.65625 -1.23437,0 0,-1.3125 1.23437,0 0,-2.4375 1.65625,-1 0,3.4375 1.6875,0 0,1.3125 -1.6875,0 0,5.75 q 0,0.71875 0.0781,0.92187 0.0937,0.20313 0.29687,0.32813 0.20313,0.125 0.57813,0.125 0.26562,0 0.73437,-0.0781 z m 8.27704,-1.67187 1.71875,0.21875 q -0.40625,1.5 -1.51562,2.34375 -1.09375,0.82812 -2.8125,0.82812 -2.15625,0 -3.42188,-1.32812 -1.26562,-1.32813 -1.26562,-3.73438 0,-2.48437 1.26562,-3.85937 1.28125,-1.375 3.32813,-1.375 1.98437,0 3.23437,1.34375 1.25,1.34375 1.25,3.79687 0,0.14063 -0.0156,0.4375 l -7.34375,0 q 0.0937,1.625 0.92187,2.48438 0.82813,0.85937 2.0625,0.85937 0.90625,0 1.54688,-0.46875 0.65625,-0.48437 1.04687,-1.54687 z m -5.48437,-2.70313 5.5,0 q -0.10938,-1.23437 -0.625,-1.85937 -0.79688,-0.96875 -2.07813,-0.96875 -1.14062,0 -1.9375,0.78125 -0.78125,0.76562 -0.85937,2.04687 z m 9.11011,5.875 0,-9.85937 1.5,0 0,1.40625 q 1.09375,-1.625 3.14062,-1.625 0.89063,0 1.64063,0.32812 0.75,0.3125 1.10937,0.84375 0.375,0.51563 0.53125,1.21875 0.0937,0.46875 0.0937,1.625 l 0,6.0625 -1.67187,0 0,-6 q 0,-1.01562 -0.20313,-1.51562 -0.1875,-0.51563 -0.6875,-0.8125 -0.5,-0.29688 -1.17187,-0.29688 -1.0625,0 -1.84375,0.67188 -0.76563,0.67187 -0.76563,2.57812 l 0,5.375 -1.67187,0 z m 9.70385,-2.9375 1.65625,-0.26562 q 0.14063,1 0.76563,1.53125 0.64062,0.51562 1.78125,0.51562 1.15625,0 1.70312,-0.46875 0.5625,-0.46875 0.5625,-1.09375 0,-0.5625 -0.48437,-0.89062 -0.34375,-0.21875 -1.70313,-0.5625 -1.84375,-0.46875 -2.5625,-0.79688 -0.70312,-0.34375 -1.07812,-0.9375 -0.35938,-0.60937 -0.35938,-1.32812 0,-0.65625 0.29688,-1.21875 0.3125,-0.5625 0.82812,-0.9375 0.39063,-0.28125 1.0625,-0.48438 0.67188,-0.20312 1.4375,-0.20312 1.17188,0 2.04688,0.34375 0.875,0.32812 1.28125,0.90625 0.42187,0.5625 0.57812,1.51562 l -1.625,0.21875 q -0.10937,-0.75 -0.65625,-1.17187 -0.53125,-0.4375 -1.5,-0.4375 -1.15625,0 -1.64062,0.39062 -0.48438,0.375 -0.48438,0.875 0,0.32813 0.20313,0.59375 0.20312,0.26563 0.64062,0.4375 0.25,0.0937 1.46875,0.4375 1.76563,0.46875 2.46875,0.76563 0.70313,0.29687 1.09375,0.875 0.40625,0.57812 0.40625,1.4375 0,0.82812 -0.48437,1.57812 -0.48438,0.73438 -1.40625,1.14063 -0.92188,0.39062 -2.07813,0.39062 -1.92187,0 -2.9375,-0.79687 -1,-0.79688 -1.28125,-2.35938 z m 10.01563,-8.75 0,-1.90625 1.67187,0 0,1.90625 -1.67187,0 z m 0,11.6875 0,-9.85937 1.67187,0 0,9.85937 -1.67187,0 z m 3.50415,-4.92187 q 0,-2.73438 1.53125,-4.0625 1.26562,-1.09375 3.09375,-1.09375 2.03125,0 3.3125,1.34375 1.29687,1.32812 1.29687,3.67187 0,1.90625 -0.57812,3 -0.5625,1.07813 -1.65625,1.6875 -1.07813,0.59375 -2.375,0.59375 -2.0625,0 -3.34375,-1.32812 -1.28125,-1.32813 -1.28125,-3.8125 z m 1.71875,0 q 0,1.89062 0.82812,2.82812 0.82813,0.9375 2.07813,0.9375 1.25,0 2.0625,-0.9375 0.82812,-0.95312 0.82812,-2.89062 0,-1.82813 -0.82812,-2.76563 -0.82813,-0.9375 -2.0625,-0.9375 -1.25,0 -2.07813,0.9375 -0.82812,0.9375 -0.82812,2.82813 z m 9.28198,4.92187 0,-9.85937 1.5,0 0,1.40625 q 1.09375,-1.625 3.14062,-1.625 0.89063,0 1.64063,0.32812 0.75,0.3125 1.10937,0.84375 0.375,0.51563 0.53125,1.21875 0.0937,0.46875 0.0937,1.625 l 0,6.0625 -1.67187,0 0,-6 q 0,-1.01562 -0.20313,-1.51562 -0.1875,-0.51563 -0.6875,-0.8125 -0.5,-0.29688 -1.17187,-0.29688 -1.0625,0 -1.84375,0.67188 -0.76563,0.67187 -0.76563,2.57812 l 0,5.375 -1.67187,0 z"
       id="path107"
       inkscape:connector-curvature="0"
       style="fill:#000000;fill-rule:nonzero" />
    <path
       d="m 786.12897,372.2207 q 0,-2.73437 1.53125,-4.0625 1.26562,-1.09375 3.09375,-1.09375 2.03125,0 3.3125,1.34375 1.29687,1.32813 1.29687,3.67188 0,1.90625 -0.57812,3 -0.5625,1.07812 -1.65625,1.6875 -1.07813,0.59375 -2.375,0.59375 -2.0625,0 -3.34375,-1.32813 -1.28125,-1.32812 -1.28125,-3.8125 z m 1.71875,0 q 0,1.89063 0.82812,2.82813 0.82813,0.9375 2.07813,0.9375 1.25,0 2.0625,-0.9375 0.82812,-0.95313 0.82812,-2.89063 0,-1.82812 -0.82812,-2.76562 -0.82813,-0.9375 -2.0625,-0.9375 -1.25,0 -2.07813,0.9375 -0.82812,0.9375 -0.82812,2.82812 z m 9.28192,4.92188 0,-9.85938 1.5,0 0,1.40625 q 1.09375,-1.625 3.14063,-1.625 0.89062,0 1.64062,0.32813 0.75,0.3125 1.10938,0.84375 0.375,0.51562 0.53125,1.21875 0.0937,0.46875 0.0937,1.625 l 0,6.0625 -1.67188,0 0,-6 q 0,-1.01563 -0.20312,-1.51563 -0.1875,-0.51562 -0.6875,-0.8125 -0.5,-0.29687 -1.17188,-0.29687 -1.0625,0 -1.84375,0.67187 -0.76562,0.67188 -0.76562,2.57813 l 0,5.375 -1.67188,0 z m 14.03198,-1.5 0.23438,1.48437 q -0.70313,0.14063 -1.26563,0.14063 -0.90625,0 -1.40625,-0.28125 -0.5,-0.29688 -0.70312,-0.75 -0.20313,-0.46875 -0.20313,-1.98438 l 0,-5.65625 -1.23437,0 0,-1.3125 1.23437,0 0,-2.4375 1.65625,-1 0,3.4375 1.6875,0 0,1.3125 -1.6875,0 0,5.75 q 0,0.71875 0.0781,0.92188 0.0937,0.20312 0.29687,0.32812 0.20313,0.125 0.57813,0.125 0.26562,0 0.73437,-0.0781 z m 0.90204,-3.42188 q 0,-2.73437 1.53125,-4.0625 1.26563,-1.09375 3.09375,-1.09375 2.03125,0 3.3125,1.34375 1.29688,1.32813 1.29688,3.67188 0,1.90625 -0.57813,3 -0.5625,1.07812 -1.65625,1.6875 -1.07812,0.59375 -2.375,0.59375 -2.0625,0 -3.34375,-1.32813 -1.28125,-1.32812 -1.28125,-3.8125 z m 1.71875,0 q 0,1.89063 0.82813,2.82813 0.82812,0.9375 2.07812,0.9375 1.25,0 2.0625,-0.9375 0.82813,-0.95313 0.82813,-2.89063 0,-1.82812 -0.82813,-2.76562 -0.82812,-0.9375 -2.0625,-0.9375 -1.25,0 -2.07812,0.9375 -0.82813,0.9375 -0.82813,2.82812 z m 9.25073,4.92188 0,-13.59375 1.67188,0 0,13.59375 -1.67188,0 z m 3.55109,-4.92188 q 0,-2.73437 1.53125,-4.0625 1.26562,-1.09375 3.09375,-1.09375 2.03125,0 3.3125,1.34375 1.29687,1.32813 1.29687,3.67188 0,1.90625 -0.57812,3 -0.5625,1.07812 -1.65625,1.6875 -1.07813,0.59375 -2.375,0.59375 -2.0625,0 -3.34375,-1.32813 -1.28125,-1.32812 -1.28125,-3.8125 z m 1.71875,0 q 0,1.89063 0.82812,2.82813 0.82813,0.9375 2.07813,0.9375 1.25,0 2.0625,-0.9375 0.82812,-0.95313 0.82812,-2.89063 0,-1.82812 -0.82812,-2.76562 -0.82813,-0.9375 -2.0625,-0.9375 -1.25,0 -2.07813,0.9375 -0.82812,0.9375 -0.82812,2.82812 z m 8.98511,5.73438 1.60937,0.25 q 0.10938,0.75 0.57813,1.09375 0.60937,0.45312 1.6875,0.45312 1.17187,0 1.79687,-0.46875 0.625,-0.45312 0.85938,-1.28125 0.125,-0.51562 0.10937,-2.15625 -1.09375,1.29688 -2.71875,1.29688 -2.03125,0 -3.15625,-1.46875 -1.10937,-1.46875 -1.10937,-3.51563 0,-1.40625 0.51562,-2.59375 0.51563,-1.20312 1.48438,-1.84375 0.96875,-0.65625 2.26562,-0.65625 1.75,0 2.875,1.40625 l 0,-1.1875 1.54688,0 0,8.51563 q 0,2.3125 -0.46875,3.26562 -0.46875,0.96875 -1.48438,1.51563 -1.01562,0.5625 -2.5,0.5625 -1.76562,0 -2.85937,-0.79688 -1.07813,-0.79687 -1.03125,-2.39062 z m 1.375,-5.92188 q 0,1.95313 0.76562,2.84375 0.78125,0.89063 1.9375,0.89063 1.14063,0 1.92188,-0.89063 0.78125,-0.89062 0.78125,-2.78125 0,-1.8125 -0.8125,-2.71875 -0.79688,-0.92187 -1.92188,-0.92187 -1.10937,0 -1.89062,0.90625 -0.78125,0.89062 -0.78125,2.67187 z m 9.31317,-6.57812 0,-1.90625 1.67187,0 0,1.90625 -1.67187,0 z m 0,11.6875 0,-9.85938 1.67187,0 0,9.85938 -1.67187,0 z m 10.87921,-3.17188 1.71875,0.21875 q -0.40625,1.5 -1.51563,2.34375 -1.09375,0.82813 -2.8125,0.82813 -2.15625,0 -3.42187,-1.32813 -1.26563,-1.32812 -1.26563,-3.73437 0,-2.48438 1.26563,-3.85938 1.28125,-1.375 3.32812,-1.375 1.98438,0 3.23438,1.34375 1.25,1.34375 1.25,3.79688 0,0.14062 -0.0156,0.4375 l -7.34375,0 q 0.0937,1.625 0.92188,2.48437 0.82812,0.85938 2.0625,0.85938 0.90625,0 1.54687,-0.46875 0.65625,-0.48438 1.04688,-1.54688 z m -5.48438,-2.70312 5.5,0 q -0.10937,-1.23438 -0.625,-1.85938 -0.79687,-0.96875 -2.07812,-0.96875 -1.14063,0 -1.9375,0.78125 -0.78125,0.76563 -0.85938,2.04688 z m 8.43824,2.9375 1.65625,-0.26563 q 0.14062,1 0.76562,1.53125 0.64063,0.51563 1.78125,0.51563 1.15625,0 1.70313,-0.46875 0.5625,-0.46875 0.5625,-1.09375 0,-0.5625 -0.48438,-0.89063 -0.34375,-0.21875 -1.70312,-0.5625 -1.84375,-0.46875 -2.5625,-0.79687 -0.70313,-0.34375 -1.07813,-0.9375 -0.35937,-0.60938 -0.35937,-1.32813 0,-0.65625 0.29687,-1.21875 0.3125,-0.5625 0.82813,-0.9375 0.39062,-0.28125 1.0625,-0.48437 0.67187,-0.20313 1.4375,-0.20313 1.17187,0 2.04687,0.34375 0.875,0.32813 1.28125,0.90625 0.42188,0.5625 0.57813,1.51563 l -1.625,0.21875 q -0.10938,-0.75 -0.65625,-1.17188 -0.53125,-0.4375 -1.5,-0.4375 -1.15625,0 -1.64063,0.39063 -0.48437,0.375 -0.48437,0.875 0,0.32812 0.20312,0.59375 0.20313,0.26562 0.64063,0.4375 0.25,0.0937 1.46875,0.4375 1.76562,0.46875 2.46875,0.76562 0.70312,0.29688 1.09375,0.875 0.40625,0.57813 0.40625,1.4375 0,0.82813 -0.48438,1.57813 -0.48437,0.73437 -1.40625,1.14062 -0.92187,0.39063 -2.07812,0.39063 -1.92188,0 -2.9375,-0.79688 -1,-0.79687 -1.28125,-2.35937 z"
       id="path109"
       inkscape:connector-curvature="0"
       style="fill:#000000;fill-rule:nonzero" />
    <path
       d="m 768,79.49606 215.49603,0 0,48.50394 L 768,128 z"
       id="path111"
       inkscape:connector-curvature="0"
       style="fill:#000000;fill-opacity:0;fill-rule:nonzero" />
    <path
       d="m 778.5,109.91209 0,-13.593746 9.84375,0 0,1.59375 -8.04688,0 0,4.171876 7.53125,0 0,1.59375 -7.53125,0 0,4.625 8.35938,0 0,1.60937 -10.15625,0 z m 11.08423,0 3.59375,-5.125 -3.32813,-4.73437 2.09375,0 1.51563,2.3125 q 0.42187,0.65625 0.67187,1.10937 0.42188,-0.60937 0.76563,-1.09375 l 1.65625,-2.32812 1.98437,0 -3.39062,4.64062 3.65625,5.21875 -2.04688,0 -2.03125,-3.0625 -0.53125,-0.82812 -2.59375,3.89062 -2.01562,0 z m 14.09375,-1.5 0.23437,1.48438 q -0.70312,0.14062 -1.26562,0.14062 -0.90625,0 -1.40625,-0.28125 -0.5,-0.29687 -0.70313,-0.75 -0.20312,-0.46875 -0.20312,-1.98437 l 0,-5.65625 -1.23438,0 0,-1.3125 1.23438,0 0,-2.437501 1.65625,-1 0,3.437501 1.6875,0 0,1.3125 -1.6875,0 0,5.75 q 0,0.71875 0.0781,0.92187 0.0937,0.20313 0.29688,0.32813 0.20312,0.125 0.57812,0.125 0.26563,0 0.73438,-0.0781 z m 8.27704,-1.67187 1.71875,0.21875 q -0.40625,1.5 -1.51563,2.34375 -1.09375,0.82812 -2.8125,0.82812 -2.15625,0 -3.42187,-1.32812 -1.26563,-1.32813 -1.26563,-3.73438 0,-2.48437 1.26563,-3.85937 1.28125,-1.375001 3.32812,-1.375001 1.98438,0 3.23438,1.343751 1.25,1.34375 1.25,3.79687 0,0.14063 -0.0156,0.4375 l -7.34375,0 q 0.0937,1.625 0.92188,2.48438 0.82812,0.85937 2.0625,0.85937 0.90625,0 1.54687,-0.46875 0.65625,-0.48437 1.04688,-1.54687 z m -5.48438,-2.70313 5.5,0 q -0.10937,-1.23437 -0.625,-1.85937 -0.79687,-0.96875 -2.07812,-0.96875 -1.14063,0 -1.9375,0.78125 -0.78125,0.76562 -0.85938,2.04687 z m 9.09442,5.875 0,-9.85937 1.5,0 0,1.5 q 0.57813,-1.04688 1.0625,-1.375 0.48438,-0.343751 1.07813,-0.343751 0.84375,0 1.71875,0.546871 l -0.57813,1.54688 q -0.60937,-0.35938 -1.23437,-0.35938 -0.54688,0 -0.98438,0.32813 -0.42187,0.32812 -0.60937,0.90625 -0.28125,0.89062 -0.28125,1.95312 l 0,5.15625 -1.67188,0 z m 6.22834,0 0,-9.85937 1.5,0 0,1.40625 q 1.09375,-1.625001 3.14062,-1.625001 0.89063,0 1.64063,0.328121 0.75,0.3125 1.10937,0.84375 0.375,0.51563 0.53125,1.21875 0.0937,0.46875 0.0937,1.625 l 0,6.0625 -1.67187,0 0,-6 q 0,-1.01562 -0.20313,-1.51562 -0.1875,-0.51563 -0.6875,-0.8125 -0.5,-0.29688 -1.17187,-0.29688 -1.0625,0 -1.84375,0.67188 -0.76563,0.67187 -0.76563,2.57812 l 0,5.375 -1.67187,0 z m 16.81323,-1.21875 q -0.9375,0.79688 -1.79688,1.125 -0.85937,0.3125 -1.84375,0.3125 -1.60937,0 -2.48437,-0.78125 -0.875,-0.79687 -0.875,-2.03125 0,-0.73437 0.32812,-1.32812 0.32813,-0.59375 0.85938,-0.95313 0.53125,-0.35937 1.20312,-0.54687 0.5,-0.14063 1.48438,-0.25 2.03125,-0.25 2.98437,-0.57813 0,-0.34375 0,-0.4375 0,-1.01562 -0.46875,-1.4375 -0.64062,-0.5625 -1.90625,-0.5625 -1.17187,0 -1.73437,0.40625 -0.5625,0.40625 -0.82813,1.46875 l -1.64062,-0.23437 q 0.23437,-1.04688 0.73437,-1.6875 0.51563,-0.64063 1.46875,-0.98438 0.96875,-0.359371 2.25,-0.359371 1.26563,0 2.04688,0.296871 0.78125,0.29688 1.15625,0.75 0.375,0.45313 0.51562,1.14063 0.0937,0.42187 0.0937,1.53125 l 0,2.23437 q 0,2.32813 0.0937,2.95313 0.10938,0.60937 0.4375,1.17187 l -1.75,0 q -0.26562,-0.51562 -0.32812,-1.21875 z m -0.14063,-3.71875 q -0.90625,0.35938 -2.73437,0.625 -1.03125,0.14063 -1.45313,0.32813 -0.42187,0.1875 -0.65625,0.54687 -0.23437,0.35938 -0.23437,0.79688 0,0.67187 0.5,1.125 0.51562,0.4375 1.48437,0.4375 0.96875,0 1.71875,-0.42188 0.75,-0.4375 1.10938,-1.15625 0.26562,-0.57812 0.26562,-1.67187 l 0,-0.60938 z m 4.04755,4.9375 0,-13.593746 1.67187,0 0,13.593746 -1.67187,0 z m 8.73437,-4.92187 q 0,-2.73438 1.53125,-4.0625 1.26563,-1.093751 3.09375,-1.093751 2.03125,0 3.3125,1.343751 1.29688,1.32812 1.29688,3.67187 0,1.90625 -0.57813,3 -0.5625,1.07813 -1.65625,1.6875 -1.07812,0.59375 -2.375,0.59375 -2.0625,0 -3.34375,-1.32812 -1.28125,-1.32813 -1.28125,-3.8125 z m 1.71875,0 q 0,1.89062 0.82813,2.82812 0.82812,0.9375 2.07812,0.9375 1.25,0 2.0625,-0.9375 0.82813,-0.95312 0.82813,-2.89062 0,-1.82813 -0.82813,-2.76563 -0.82812,-0.9375 -2.0625,-0.9375 -1.25,0 -2.07812,0.9375 -0.82813,0.9375 -0.82813,2.82813 z m 9.28199,4.92187 0,-9.85937 1.5,0 0,1.40625 q 1.09375,-1.625001 3.14062,-1.625001 0.89063,0 1.64063,0.328121 0.75,0.3125 1.10937,0.84375 0.375,0.51563 0.53125,1.21875 0.0937,0.46875 0.0937,1.625 l 0,6.0625 -1.67187,0 0,-6 q 0,-1.01562 -0.20313,-1.51562 -0.1875,-0.51563 -0.6875,-0.8125 -0.5,-0.29688 -1.17187,-0.29688 -1.0625,0 -1.84375,0.67188 -0.76563,0.67187 -0.76563,2.57812 l 0,5.375 -1.67187,0 z m 14.03198,-1.5 0.23437,1.48438 q -0.70312,0.14062 -1.26562,0.14062 -0.90625,0 -1.40625,-0.28125 -0.5,-0.29687 -0.70313,-0.75 -0.20312,-0.46875 -0.20312,-1.98437 l 0,-5.65625 -1.23438,0 0,-1.3125 1.23438,0 0,-2.437501 1.65625,-1 0,3.437501 1.6875,0 0,1.3125 -1.6875,0 0,5.75 q 0,0.71875 0.0781,0.92187 0.0937,0.20313 0.29688,0.32813 0.20312,0.125 0.57812,0.125 0.26563,0 0.73438,-0.0781 z m 0.90204,-3.42187 q 0,-2.73438 1.53125,-4.0625 1.26562,-1.093751 3.09375,-1.093751 2.03125,0 3.3125,1.343751 1.29687,1.32812 1.29687,3.67187 0,1.90625 -0.57812,3 -0.5625,1.07813 -1.65625,1.6875 -1.07813,0.59375 -2.375,0.59375 -2.0625,0 -3.34375,-1.32812 -1.28125,-1.32813 -1.28125,-3.8125 z m 1.71875,0 q 0,1.89062 0.82812,2.82812 0.82813,0.9375 2.07813,0.9375 1.25,0 2.0625,-0.9375 0.82812,-0.95312 0.82812,-2.89062 0,-1.82813 -0.82812,-2.76563 -0.82813,-0.9375 -2.0625,-0.9375 -1.25,0 -2.07813,0.9375 -0.82812,0.9375 -0.82812,2.82813 z m 9.25073,4.92187 0,-13.593746 1.67187,0 0,13.593746 -1.67187,0 z m 3.55109,-4.92187 q 0,-2.73438 1.53125,-4.0625 1.26562,-1.093751 3.09375,-1.093751 2.03125,0 3.3125,1.343751 1.29687,1.32812 1.29687,3.67187 0,1.90625 -0.57812,3 -0.5625,1.07813 -1.65625,1.6875 -1.07813,0.59375 -2.375,0.59375 -2.0625,0 -3.34375,-1.32812 -1.28125,-1.32813 -1.28125,-3.8125 z m 1.71875,0 q 0,1.89062 0.82812,2.82812 0.82813,0.9375 2.07813,0.9375 1.25,0 2.0625,-0.9375 0.82812,-0.95312 0.82812,-2.89062 0,-1.82813 -0.82812,-2.76563 -0.82813,-0.9375 -2.0625,-0.9375 -1.25,0 -2.07813,0.9375 -0.82812,0.9375 -0.82812,2.82813 z m 8.9851,5.73437 1.60938,0.25 q 0.10937,0.75 0.57812,1.09375 0.60938,0.45313 1.6875,0.45313 1.17188,0 1.79688,-0.46875 0.625,-0.45313 0.85937,-1.28125 0.125,-0.51563 0.10938,-2.15625 -1.09375,1.29687 -2.71875,1.29687 -2.03125,0 -3.15625,-1.46875 -1.10938,-1.46875 -1.10938,-3.51562 0,-1.40625 0.51563,-2.59375 0.51562,-1.20313 1.48437,-1.84375 0.96875,-0.656251 2.26563,-0.656251 1.75,0 2.875,1.406251 l 0,-1.1875 1.54687,0 0,8.51562 q 0,2.3125 -0.46875,3.26563 -0.46875,0.96875 -1.48437,1.51562 -1.01563,0.5625 -2.5,0.5625 -1.76563,0 -2.85938,-0.79687 -1.07812,-0.79688 -1.03125,-2.39063 z m 1.375,-5.92187 q 0,1.95312 0.76563,2.84375 0.78125,0.89062 1.9375,0.89062 1.14062,0 1.92187,-0.89062 0.78125,-0.89063 0.78125,-2.78125 0,-1.8125 -0.8125,-2.71875 -0.79687,-0.92188 -1.92187,-0.92188 -1.10938,0 -1.89063,0.90625 -0.78125,0.89063 -0.78125,2.67188 z m 9.31317,-6.578126 0,-1.90625 1.67188,0 0,1.90625 -1.67188,0 z m 0,11.687496 0,-9.85937 1.67188,0 0,9.85937 -1.67188,0 z m 10.87921,-3.17187 1.71875,0.21875 q -0.40625,1.5 -1.51562,2.34375 -1.09375,0.82812 -2.8125,0.82812 -2.15625,0 -3.42188,-1.32812 -1.26562,-1.32813 -1.26562,-3.73438 0,-2.48437 1.26562,-3.85937 1.28125,-1.375001 3.32813,-1.375001 1.98437,0 3.23437,1.343751 1.25,1.34375 1.25,3.79687 0,0.14063 -0.0156,0.4375 l -7.34375,0 q 0.0937,1.625 0.92187,2.48438 0.82813,0.85937 2.0625,0.85937 0.90625,0 1.54688,-0.46875 0.65625,-0.48437 1.04687,-1.54687 z m -5.48437,-2.70313 5.5,0 q -0.10938,-1.23437 -0.625,-1.85937 -0.79688,-0.96875 -2.07813,-0.96875 -1.14062,0 -1.9375,0.78125 -0.78125,0.76562 -0.85937,2.04687 z m 8.43823,2.9375 1.65625,-0.26562 q 0.14063,1 0.76563,1.53125 0.64062,0.51562 1.78125,0.51562 1.15625,0 1.70312,-0.46875 0.5625,-0.46875 0.5625,-1.09375 0,-0.5625 -0.48437,-0.89062 -0.34375,-0.21875 -1.70313,-0.5625 -1.84375,-0.46875 -2.5625,-0.79688 -0.70312,-0.34375 -1.07812,-0.9375 -0.35938,-0.60937 -0.35938,-1.32812 0,-0.65625 0.29688,-1.21875 0.3125,-0.5625 0.82812,-0.9375 0.39063,-0.28125 1.0625,-0.48438 0.67188,-0.203121 1.4375,-0.203121 1.17188,0 2.04688,0.343751 0.875,0.32812 1.28125,0.90625 0.42187,0.5625 0.57812,1.51562 l -1.625,0.21875 q -0.10937,-0.75 -0.65625,-1.17187 -0.53125,-0.4375 -1.5,-0.4375 -1.15625,0 -1.64062,0.39062 -0.48438,0.375 -0.48438,0.875 0,0.32813 0.20313,0.59375 0.20312,0.26563 0.64062,0.4375 0.25,0.0937 1.46875,0.4375 1.76563,0.46875 2.46875,0.76563 0.70313,0.29687 1.09375,0.875 0.40625,0.57812 0.40625,1.4375 0,0.82812 -0.48437,1.57812 -0.48438,0.73438 -1.40625,1.14063 -0.92188,0.39062 -2.07813,0.39062 -1.92187,0 -2.9375,-0.79687 -1,-0.79688 -1.28125,-2.35938 z"
       id="path113"
       inkscape:connector-curvature="0"
       style="fill:#000000;fill-rule:nonzero" />
    <path
       d="m 536,80 64,0 0,40 -64,0 z"
       id="path115"
       inkscape:connector-curvature="0"
       style="fill:#d9d9d9;fill-rule:nonzero" />
    <path
       d="m 536,80 64,0 0,40 -64,0 z"
       id="path117"
       inkscape:connector-curvature="0"
       style="stroke:#0000ff;stroke-width:2;stroke-linecap:butt;stroke-linejoin:round" />
    <path
       d="m 547.98047,105.28125 0,-11.453125 7.73437,0 0,1.34375 -6.21875,0 0,3.546875 5.375,0 0,1.35938 -5.375,0 0,5.20312 -1.51562,0 z m 9.24219,-5.578125 q 0,-2.859375 1.53125,-4.46875 1.53125,-1.609375 3.95312,-1.609375 1.57813,0 2.84375,0.765625 1.28125,0.75 1.95313,2.109375 0.67187,1.34375 0.67187,3.0625 0,1.75 -0.70312,3.125 -0.70313,1.375 -2,2.09375 -1.28125,0.70313 -2.78125,0.70313 -1.60938,0 -2.89063,-0.78125 -1.26562,-0.79688 -1.92187,-2.14063 -0.65625,-1.35937 -0.65625,-2.859375 z m 1.5625,0.01563 q 0,2.078135 1.10937,3.265635 1.10938,1.1875 2.79688,1.1875 1.70312,0 2.8125,-1.20313 1.10937,-1.20312 1.10937,-3.406255 0,-1.40625 -0.48437,-2.4375 -0.46875,-1.046875 -1.375,-1.625 -0.90625,-0.578125 -2.04688,-0.578125 -1.60937,0 -2.76562,1.109375 -1.15625,1.109375 -1.15625,3.6875 z m 10.07031,5.562505 4.40625,-11.45313 1.64062,0 4.6875,11.45313 -1.73437,0 -1.32813,-3.46875 -4.79687,0 -1.25,3.46875 -1.625,0 z m 3.3125,-4.70312 3.89062,0 -1.20312,-3.171885 q -0.54688,-1.453125 -0.8125,-2.375 -0.21875,1.09375 -0.60938,2.1875 l -1.26562,3.359385 z m 8.70312,4.70312 0,-11.45313 7.73438,0 0,1.34375 -6.21875,0 0,3.546875 5.375,0 0,1.359385 -5.375,0 0,5.20312 -1.51563,0 z"
       id="path119"
       inkscape:connector-curvature="0"
       style="fill:#000000;fill-rule:nonzero" />
    <path
       d="M 608.25195,152 568,120"
       id="path121"
       inkscape:connector-curvature="0"
       style="fill:#000000;fill-opacity:0;fill-rule:nonzero" />
    <path
       d="M 608.25195,152 577.39331,127.46762"
       id="path123"
       inkscape:connector-curvature="0"
       style="stroke:#000000;stroke-width:2;stroke-linecap:butt;stroke-linejoin:round" />
    <path
       d="m 579.4491,124.88174 -9.1604,-3.06225 5.04889,8.23401 z"
       id="path125"
       inkscape:connector-curvature="0"
       style="fill:#000000;fill-rule:evenodd;stroke:#000000;stroke-width:2;stroke-linecap:butt" />
    <path
       d="M 199.49606,80 256,80 l 0,40 -56.50394,0 z"
       id="path127"
       inkscape:connector-curvature="0"
       style="fill:#d9d9d9;fill-rule:nonzero" />
    <path
       d="M 199.49606,80 256,80 l 0,40 -56.50394,0 z"
       id="path129"
       inkscape:connector-curvature="0"
       style="stroke:#0000ff;stroke-width:2;stroke-linecap:butt;stroke-linejoin:round" />
    <path
       d="m 222.53319,105.28125 0,-1.60937 1.60937,0 0,1.60937 -1.60937,0 z m 4.44531,0 0,-1.60937 1.60938,0 0,1.60937 -1.60938,0 z m 4.44531,0 0,-1.60937 1.60938,0 0,1.60937 -1.60938,0 z"
       id="path131"
       inkscape:connector-curvature="0"
       style="fill:#000000;fill-rule:nonzero" />
    <path
       d="M 464,399.50565 463.74802,120.00168"
       id="path133"
       inkscape:connector-curvature="0"
       style="fill:#000000;fill-opacity:0;fill-rule:nonzero" />
    <path
       d="M 464,399.50565 463.75885,132.00168"
       id="path135"
       inkscape:connector-curvature="0"
       style="stroke:#000000;stroke-width:2;stroke-linecap:butt;stroke-linejoin:round" />
    <path
       d="m 467.06232,131.99869 -3.31165,-9.07321 -3.29528,9.07916 z"
       id="path137"
       inkscape:connector-curvature="0"
       style="fill:#000000;fill-rule:evenodd;stroke:#000000;stroke-width:2;stroke-linecap:butt" />
    <path
       d="m 464,367.96442 0,31.52805 40,0"
       id="path139"
       inkscape:connector-curvature="0"
       style="fill:#000000;fill-opacity:0;fill-rule:nonzero" />
    <path
       d="m 464,367.96442 0,31.52805 40,0"
       id="path141"
       inkscape:connector-curvature="0"
       style="stroke:#000000;stroke-width:2;stroke-linecap:butt;stroke-linejoin:round" />
  </g>
</svg>
